<svg xmlns="http://www.w3.org/2000/svg" width="15.779" height="17.677" viewBox="0 0 15.779 17.677">
  <g id="Group_34835" data-name="Group 34835" transform="translate(-27.485)">
    <path id="Path_20951" data-name="Path 20951" d="M165.232,64.242V75.048l-9.942,3.073V64h3.866l1.106.345L161.367,64h3.623A.242.242,0,0,1,165.232,64.242Z" transform="translate(-123.392 -61.79)" fill="#edba94"/>
    <path id="Path_20952" data-name="Path 20952" d="M158.378,64.552a3.485,3.485,0,0,0-.044-.552H155.3v4A3.479,3.479,0,0,0,158.378,64.552Z" transform="translate(-123.397 -61.79)" fill="#e5a87f"/>
    <path id="Path_20953" data-name="Path 20953" d="M155.294,64h.711V75.048h-.711Z" transform="translate(-123.396 -61.79)" fill="#e5a87f"/>
    <path id="Path_20954" data-name="Path 20954" d="M269.116,66.792l-.663-.3a.242.242,0,0,0-.2,0l-.663.3a.242.242,0,0,1-.342-.22V64h2.212v2.572A.242.242,0,0,1,269.116,66.792Z" transform="translate(-231.484 -61.79)" fill="#fd6930"/>
    <path id="Path_20955" data-name="Path 20955" d="M201.86,213.577l-.827-.827a.242.242,0,0,0-.342,0l-.827.827a.242.242,0,0,0,.171.413h.033a.242.242,0,0,1,.242.242v1.912a.242.242,0,0,0,.242.242h.621a.242.242,0,0,0,.242-.242v-1.912a.242.242,0,0,1,.242-.242h.033A.242.242,0,0,0,201.86,213.577Z" transform="translate(-166.359 -205.337)" fill="#f1f6f7"/>
    <path id="Path_20956" data-name="Path 20956" d="M349.453,288.774h-1.726a.242.242,0,0,1-.242-.242v-.646a.242.242,0,0,1,.242-.242h1.726a.242.242,0,0,1,.242.242v.646A.242.242,0,0,1,349.453,288.774Z" transform="translate(-308.952 -277.714)" fill="#e5a87f"/>
    <g id="Group_34832" data-name="Group 34832" transform="translate(38.266 8.572)">
      <g id="Group_34831" data-name="Group 34831" transform="translate(0)">
        <path id="Path_20957" data-name="Path 20957" d="M342.234,248.808h-2.21a.267.267,0,0,1,0-.533h2.21a.267.267,0,1,1,0,.533Z" transform="translate(-339.758 -248.274)" fill="#e5a87f"/>
      </g>
    </g>
    <path id="Path_20958" data-name="Path 20958" d="M162.176,322.265a1.23,1.23,0,0,0-1.064-.616H159.53l-.757-.293a3.817,3.817,0,0,0-1.381-.258,6.012,6.012,0,0,0-2.1.361v4.305l9.942-3.073V320.5Z" transform="translate(-123.392 -309.434)" fill="#e5a87f"/>
    <path id="Path_20959" data-name="Path 20959" d="M113.83,330.841a4.63,4.63,0,0,1,3.2-1.076,3.314,3.314,0,0,1,1.195.223l.847.328h1.678a.71.71,0,0,1,.71.71,1.362,1.362,0,0,1-.031.208h0l1.348-.778,2.46-1.421a.71.71,0,0,1,.97.26.735.735,0,0,1-.26.97l-4.5,3.514a1.768,1.768,0,0,1-1.09.376H113.83l-.345-.57v-2.1Z" transform="translate(-83.031 -317.583)" fill="#ffcebf"/>
    <path id="Path_20960" data-name="Path 20960" d="M117.33,352.856q-.149-.014-.3-.014a4.63,4.63,0,0,0-3.2,1.076l-.345.644V356.7l.345.535h.711v-3.207a.241.241,0,0,1,.085-.184,4.674,4.674,0,0,1,2.7-.986Z" transform="translate(-83.031 -340.66)" fill="#ffb09e"/>
    <path id="Path_20961" data-name="Path 20961" d="M226.944,331.161a.441.441,0,0,1-.424.313H223.3a.267.267,0,0,0,0,.534h3.221a.979.979,0,0,0,.467-.118l4.731-2.846a.709.709,0,0,0-.716,0l-2.46,1.421-1.348.778h0a1.36,1.36,0,0,0,.031-.208c0-.019,0-.039,0-.058A.267.267,0,0,0,226.944,331.161Z" transform="translate(-188.796 -317.588)" fill="#ffb09e"/>
    <circle id="Ellipse_21" data-name="Ellipse 21" cx="2.762" cy="2.762" r="2.762" transform="translate(28.746 0)" fill="#ade194"/>
    <path id="Path_20962" data-name="Path 20962" d="M64.711,2.762A2.763,2.763,0,0,1,67.118.023,2.792,2.792,0,0,0,66.762,0a2.762,2.762,0,1,0,0,5.524,2.792,2.792,0,0,0,.356-.023A2.763,2.763,0,0,1,64.711,2.762Z" transform="translate(-35.254 0)" fill="#7dce6f"/>
    <g id="Group_34834" data-name="Group 34834" transform="translate(29.876 1.536)">
      <g id="Group_34833" data-name="Group 34833" transform="translate(0)">
        <path id="Path_20963" data-name="Path 20963" d="M97.826,47.09a.267.267,0,0,1-.2-.094l-.83-.974a.267.267,0,1,1,.406-.346l.62.728,1.438-1.81a.267.267,0,0,1,.418.332l-1.64,2.064a.267.267,0,0,1-.2.1Z" transform="translate(-96.73 -44.493)" fill="#f1f6f7"/>
      </g>
    </g>
    <path id="Path_20964" data-name="Path 20964" d="M81.83,357.524H82.7a.242.242,0,0,0,.242-.242v-5.041A.242.242,0,0,0,82.7,352H81.485v4.419Z" transform="translate(-52.136 -339.847)" fill="#f1f6f7"/>
    <path id="Path_20965" data-name="Path 20965" d="M27.727,336h1.726a.242.242,0,0,1,.242.242v5.835H27.727a.242.242,0,0,1-.242-.242v-5.593A.242.242,0,0,1,27.727,336Z" transform="translate(0 -324.399)" fill="#9dc6fb"/>
    <path id="Path_20966" data-name="Path 20966" d="M27.485,336.242v5.593a.242.242,0,0,0,.242.242h.47V336h-.47A.242.242,0,0,0,27.485,336.242Z" transform="translate(0 -324.399)" fill="#80b4fb"/>
    <path id="Path_20967" data-name="Path 20967" d="M52.414,376.807a.267.267,0,1,1,.267-.267A.267.267,0,0,1,52.414,376.807Z" transform="translate(-23.811 -363.283)" fill="#f1f6f7"/>
  </g>
</svg>
