<svg xmlns="http://www.w3.org/2000/svg" xmlns:xlink="http://www.w3.org/1999/xlink" width="47" height="26" viewBox="0 0 47 26">
  <defs>
    <clipPath id="clip-path">
      <rect id="icon_voucher" data-name="icon voucher" width="47" height="26" transform="translate(909 690)" fill="#fff"/>
    </clipPath>
  </defs>
  <g id="Mask_Group_556" data-name="Mask Group 556" transform="translate(-909 -690)" clip-path="url(#clip-path)">
    <g id="icon_voucher-2" data-name="icon voucher" transform="translate(909 690.219)">
      <path id="Path_23801" data-name="Path 23801" d="M11.4,13.526c-.6,0-.978.51-.978,1.531s.425,1.531.978,1.531.978-.51.978-1.531-.383-1.531-.978-1.531Z" fill="#1eac59"/>
      <path id="Path_23802" data-name="Path 23802" d="M5.912,10.506c0-1.021-.383-1.531-.978-1.531s-.978.51-.978,1.531.425,1.531.978,1.531.978-.51.978-1.531Z" fill="#1eac59"/>
      <path id="Path_23803" data-name="Path 23803" d="M45.129,0H20.884a3.458,3.458,0,0,0-3.445,3.445V7.188H16.333V3.658A3.658,3.658,0,0,0,12.675,0H1.7A1.706,1.706,0,0,0,0,1.7v22.16a1.706,1.706,0,0,0,1.7,1.7H12.718A3.658,3.658,0,0,0,16.376,21.9V19.4h1.106v2.722a3.458,3.458,0,0,0,3.445,3.445H45.171A1.815,1.815,0,0,0,47,23.734V1.829A1.815,1.815,0,0,0,45.171,0ZM2.552,10.506A2.375,2.375,0,0,1,4.934,7.869a2.345,2.345,0,0,1,2.339,2.637,2.368,2.368,0,0,1-2.339,2.637,2.4,2.4,0,0,1-2.382-2.637Zm1.531,7.018L10.591,8h1.616L5.7,17.524H4.083Zm7.316.128A2.368,2.368,0,0,1,9.06,15.014,2.368,2.368,0,0,1,11.4,12.377a2.4,2.4,0,0,1,2.382,2.637A2.375,2.375,0,0,1,11.4,17.652Zm6.04-.3H16.333V14.291h1.106Zm0-5.1H16.333V9.187h1.106ZM25.9,3.615a.808.808,0,0,1,.808-.808H37.728a.808.808,0,0,1,.808.808v.851a.808.808,0,0,1-.808.808H26.711a.808.808,0,0,1-.808-.808V3.615Zm7.231,17.269a.808.808,0,0,1-.808.808H22.033a.808.808,0,0,1-.808-.808v-.851a.808.808,0,0,1,.808-.808H32.326a.808.808,0,0,1,.808.808Zm10.038-4.126a.808.808,0,0,1-.808.808H22.033a.808.808,0,0,1-.808-.808v-.851a.808.808,0,0,1,.808-.808H42.364a.808.808,0,0,1,.808.808Zm0-4.126a.808.808,0,0,1-.808.808H22.033a.808.808,0,0,1-.808-.808v-.851a.808.808,0,0,1,.808-.808H42.364a.808.808,0,0,1,.808.808Zm0-4.126a.808.808,0,0,1-.808.808H22.033a.808.808,0,0,1-.808-.808V7.656a.808.808,0,0,1,.808-.808H42.364a.808.808,0,0,1,.808.808Z" fill="#1eac59"/>
    </g>
  </g>
</svg>
