<svg xmlns="http://www.w3.org/2000/svg" width="91" height="97.482" viewBox="0 0 91 97.482">
  <g id="Group_34641" data-name="Group 34641" transform="translate(-3153.5 -1911.5)">
    <path id="Path_20765" data-name="Path 20765" d="M1264.189,1478.961v-24.192a24.047,24.047,0,0,0-12.025-20.826l-20.95-12.1a24.052,24.052,0,0,0-24.049,0l-20.95,12.1a24.047,24.047,0,0,0-12.025,20.826v24.192a24.049,24.049,0,0,0,12.025,20.827l20.95,12.1a24.048,24.048,0,0,0,24.049,0l20.95-12.1A24.049,24.049,0,0,0,1264.189,1478.961Z" transform="translate(1979.811 493.376)" fill="none" stroke="#e06a29" stroke-width="1"/>
    <path id="Path_20766" data-name="Path 20766" d="M1256.835,1476.984v-20.239a20.118,20.118,0,0,0-10.059-17.423l-17.527-10.12a20.121,20.121,0,0,0-20.119,0l-17.527,10.12a20.118,20.118,0,0,0-10.059,17.423v20.239a20.118,20.118,0,0,0,10.059,17.423l17.527,10.12a20.118,20.118,0,0,0,20.119,0l17.527-10.12A20.118,20.118,0,0,0,1256.835,1476.984Z" transform="translate(1979.811 493.375)" fill="none" stroke="#e06a29" stroke-width="6" opacity="0.2"/>
    <path id="Path_20767" data-name="Path 20767" d="M1227.945,1454.141a22.412,22.412,0,1,0,22.413,22.413A22.437,22.437,0,0,0,1227.945,1454.141Zm0,41.624a19.211,19.211,0,1,1,19.212-19.211A19.233,19.233,0,0,1,1227.945,1495.765Z" transform="translate(1970.854 483.687)" fill="#e06a29"/>
    <path id="Path_20768" data-name="Path 20768" d="M1228.7,1474.891h0c-3.845-.675-5.8-1.658-5.8-2.92,0-1.354,2.259-2.376,5.255-2.376,3.216,0,4.863,1.637,5.186,2.738a1.6,1.6,0,1,0,3.072-.9c-.61-2.085-2.829-4.3-6.394-4.887v-2.085a1.6,1.6,0,0,0-3.2,0v1.993c-4.308.363-7.119,2.484-7.119,5.516,0,4.591,6.132,5.668,8.441,6.075h0c5.8,1.019,5.8,2.505,5.8,3.065,0,1.152-2.008,2.4-5.254,2.4-3.86,0-6.513-1.54-6.759-2.968a1.6,1.6,0,1,0-3.155.543c.5,2.909,3.706,5.048,8.047,5.526v2.04a1.6,1.6,0,1,0,3.2,0v-2c4.252-.374,7.121-2.541,7.121-5.532C1237.142,1476.916,1232.63,1475.584,1228.7,1474.891Z" transform="translate(1970.83 483.687)" fill="#e06a29"/>
  </g>
</svg>
