<svg xmlns="http://www.w3.org/2000/svg" width="322.331" height="196.328" viewBox="0 0 322.331 196.328">
  <g id="Group_34939" data-name="Group 34939" transform="translate(-276.921 -384.869)">
    <g id="Group_34666" data-name="Group 34666">
      <path id="Path_20905" data-name="Path 20905" d="M307.921,548.711V453.017h27.192l23.775,48.59,23.626-48.59h27.044v95.694H381.622V500.864l-15.305,31.5H351.31l-15.454-31.5v47.847Z" fill="#fff"/>
      <path id="Path_20905_-_Outline" data-name="Path 20905 - Outline" d="M409.558,579.711H381.622a30.922,30.922,0,0,1-22.883-10.086,30.922,30.922,0,0,1-22.883,10.086H307.921a31,31,0,0,1-31-31V453.017a31,31,0,0,1,31-31h27.192a31,31,0,0,1,23.7,11.016,31,31,0,0,1,23.7-11.016h27.044a31,31,0,0,1,31,31v95.694A31,31,0,0,1,409.558,579.711Z" fill="#fff"/>
      <path id="Path_20906" data-name="Path 20906" d="M468.844,550.2q-23.775,0-36.331-11.59t-12.555-37.446q0-17.831,5.646-28.752a34.19,34.19,0,0,1,16.568-15.9q10.922-4.977,26.672-4.978a71.659,71.659,0,0,1,18.946,2.3,38.021,38.021,0,0,1,14.339,7.206q6.832-.3,9.659-3.492t2.823-11.07h19.762q0,14.711-4.754,21.918t-15.454,9.435q3.566,9.361,3.567,23.329,0,25.854-12.631,37.446T468.844,550.2Zm0-23.775q10.7,0,15.528-6.018t4.83-19.243q0-14.115-4.83-19.986t-15.528-5.869q-10.7,0-15.528,5.869t-4.829,19.986q0,13.227,4.829,19.243T468.844,526.422ZM457.7,446.479l13.076-30.61h21.7L478.2,446.479Z" fill="#fff"/>
      <path id="Path_20906_-_Outline" data-name="Path 20906 - Outline" d="M468.844,581.2c-23.818,0-43.116-6.665-57.357-19.811-14.948-13.8-22.529-34.06-22.529-60.225,0-17.079,2.981-31.143,9.112-43A65.508,65.508,0,0,1,429.311,428.3q1.475-.672,2.993-1.286l9.964-23.326a31,31,0,0,1,28.508-18.822h21.7a31,31,0,0,1,31,30.61h10.9a31,31,0,0,1,31,31c0,16.16-3.231,28.913-9.877,38.988a50.231,50.231,0,0,1-6.961,8.39q.2,3.549.2,7.3c0,26.2-7.627,46.479-22.669,60.285C511.776,574.553,492.527,581.2,468.844,581.2Z" fill="#fff"/>
      <path id="Path_20907" data-name="Path 20907" d="M540.316,548.711V453.017h27.936v95.694Z" fill="#fff"/>
      <path id="Path_20907_-_Outline" data-name="Path 20907 - Outline" d="M568.252,579.711H540.316a31,31,0,0,1-31-31V453.017a31,31,0,0,1,31-31h27.936a31,31,0,0,1,31,31v95.694A31,31,0,0,1,568.252,579.711Z" fill="#fff"/>
    </g>
    <g id="Group_34667" data-name="Group 34667">
      <path id="Path_20908" data-name="Path 20908" d="M307.921,548.238V452.544h27.192l23.775,48.59,23.626-48.59h27.044v95.694H381.622V500.391l-15.305,31.5H351.31l-15.454-31.5v47.847Z" fill="#992f00"/>
      <path id="Path_20908_-_Outline" data-name="Path 20908 - Outline" d="M409.558,570.238H381.622a22.009,22.009,0,0,1-21.266-16.345h-3.233a22.009,22.009,0,0,1-21.266,16.345H307.921a22,22,0,0,1-22-22V452.544a22,22,0,0,1,22-22h27.192a22,22,0,0,1,19.761,12.331l3.952,8.076,3.9-8.027a22,22,0,0,1,19.785-12.38h27.044a22,22,0,0,1,22,22v95.694A22,22,0,0,1,409.558,570.238Z" fill="#992f00"/>
      <path id="Path_20909" data-name="Path 20909" d="M468.844,549.724q-23.775,0-36.331-11.591t-12.555-37.445q0-17.83,5.646-28.753a34.192,34.192,0,0,1,16.568-15.9q10.922-4.977,26.672-4.978a71.7,71.7,0,0,1,18.946,2.3,38.037,38.037,0,0,1,14.339,7.207q6.832-.3,9.659-3.492t2.823-11.07h19.762q0,14.71-4.754,21.918t-15.454,9.435q3.566,9.361,3.567,23.329,0,25.854-12.631,37.445T468.844,549.724Zm0-23.775q10.7,0,15.528-6.018t4.83-19.243q0-14.116-4.83-19.986t-15.528-5.869q-10.7,0-15.528,5.869t-4.829,19.986q0,13.227,4.829,19.243T468.844,525.949ZM457.7,446.006l13.076-30.611h21.7L478.2,446.006Z" fill="#992f00"/>
      <path id="Path_20909_-_Outline" data-name="Path 20909 - Outline" d="M468.844,571.724c-21.484,0-38.729-5.863-51.254-17.426-13.026-12.021-19.632-30.059-19.632-53.61,0-15.6,2.651-28.316,8.105-38.86a55.844,55.844,0,0,1,26.981-25.809q2.909-1.325,6.024-2.4l11.476-26.866A22,22,0,0,1,470.776,393.4h21.7A22,22,0,0,1,512.68,424.09q.954-.083,1.931-.084h19.762a22,22,0,0,1,22,22c0,14.342-2.744,25.474-8.39,34.032a41.262,41.262,0,0,1-8.761,9.549q.512,5.271.51,11.1c0,23.572-6.647,41.624-19.756,53.654C507.406,565.876,490.2,571.724,468.844,571.724Z" fill="#992f00"/>
      <path id="Path_20910" data-name="Path 20910" d="M540.316,548.238V452.544h27.936v95.694Z" fill="#992f00"/>
      <path id="Path_20910_-_Outline" data-name="Path 20910 - Outline" d="M568.252,570.238H540.316a22,22,0,0,1-22-22V452.544a22,22,0,0,1,22-22h27.936a22,22,0,0,1,22,22v95.694A22,22,0,0,1,568.252,570.238Z" fill="#992f00"/>
    </g>
    <g id="Group_34668" data-name="Group 34668">
      <path id="Path_20911" data-name="Path 20911" d="M307.921,543.607V447.913h27.192l23.775,48.59,23.626-48.59h27.044v95.694H381.622V495.76l-15.305,31.5H351.31l-15.454-31.5v47.847Z" fill="#ff6d00"/>
      <path id="Path_20911_-_Outline" data-name="Path 20911 - Outline" d="M409.558,556.107H381.622a12.5,12.5,0,0,1-12.5-12.5v-4.163a12.5,12.5,0,0,1-2.805.318H351.31a12.492,12.492,0,0,1-2.954-.354v4.2a12.5,12.5,0,0,1-12.5,12.5H307.921a12.5,12.5,0,0,1-12.5-12.5V447.913a12.5,12.5,0,0,1,12.5-12.5h27.192a12.5,12.5,0,0,1,11.228,7.006l12.512,25.571,12.42-25.543a12.5,12.5,0,0,1,11.242-7.034h27.044a12.5,12.5,0,0,1,12.5,12.5v95.694A12.5,12.5,0,0,1,409.558,556.107Zm-15.436-25h2.936V460.413h-6.723l-11.233,23.1a12.5,12.5,0,0,1,15.02,12.244Zm-73.7,0h2.935V495.76a12.5,12.5,0,0,1,15.29-12.185l-11.333-23.162h-6.892Zm35.7-22.413,2.671,5.445,2.621-5.394A12.5,12.5,0,0,1,358.9,509,12.836,12.836,0,0,1,356.124,508.694Z" fill="#ff6d00"/>
      <path id="Path_20912" data-name="Path 20912" d="M468.844,545.093q-23.775,0-36.331-11.59t-12.555-37.446q0-17.83,5.646-28.752a34.19,34.19,0,0,1,16.568-15.9q10.922-4.977,26.672-4.978a71.659,71.659,0,0,1,18.946,2.3,38.021,38.021,0,0,1,14.339,7.206q6.832-.3,9.659-3.492t2.823-11.07h19.762q0,14.711-4.754,21.918t-15.454,9.435q3.566,9.361,3.567,23.329,0,25.854-12.631,37.446T468.844,545.093Zm0-23.775q10.7,0,15.528-6.018t4.83-19.243q0-14.115-4.83-19.986T468.844,470.2q-10.7,0-15.528,5.869t-4.829,19.986q0,13.227,4.829,19.243T468.844,521.318ZM457.7,441.375l13.076-30.61h21.7L478.2,441.375Z" fill="#ff6d00"/>
      <path id="Path_20912_-_Outline" data-name="Path 20912 - Outline" d="M468.844,557.593c-19.019,0-34.095-5.015-44.809-14.9-11-10.152-16.577-25.841-16.577-46.631,0-14.05,2.3-25.333,7.044-34.5a46.557,46.557,0,0,1,22.484-21.53,61.024,61.024,0,0,1,9.1-3.277q.058-.145.12-.29l13.076-30.61a12.5,12.5,0,0,1,11.5-7.59h21.7a12.5,12.5,0,0,1,11.33,17.78l-9.995,21.445a53.012,53.012,0,0,1,8.31,3.509,12.5,12.5,0,0,1,12.494-12.124h19.762a12.5,12.5,0,0,1,12.5,12.5c0,12.424-2.231,21.844-6.82,28.8a32.031,32.031,0,0,1-11.011,10.265,96.1,96.1,0,0,1,1.19,15.615c0,20.8-5.612,36.5-16.679,46.655C502.79,552.587,487.748,557.593,468.844,557.593Zm-15.066-97.019a37.247,37.247,0,0,0-6.422,2.206,21.832,21.832,0,0,0-10.647,10.264c-2.822,5.454-4.251,13.2-4.251,23.013,0,13.526,2.871,23.035,8.533,28.26a29.392,29.392,0,0,0,12.677,6.539,26.947,26.947,0,0,1-10.1-7.735c-5.1-6.353-7.578-15.206-7.578-27.064,0-12.514,2.511-21.649,7.676-27.928A26.906,26.906,0,0,1,453.778,460.574Zm30.456.144a26.86,26.86,0,0,1,9.789,7.409c5.169,6.286,7.679,15.421,7.679,27.93,0,11.853-2.479,20.706-7.579,27.064a26.947,26.947,0,0,1-9.972,7.675,29.58,29.58,0,0,0,12.5-6.5c5.694-5.226,8.582-14.726,8.582-28.235,0-7.74-.925-14.092-2.748-18.88a12.5,12.5,0,0,1-.058-8.744,12.5,12.5,0,0,1-8.251-2.854,25.476,25.476,0,0,0-9.694-4.795ZM468.844,482.7c-3.541,0-5.377.706-5.874,1.31-.02.025-1.983,2.52-1.983,12.045,0,8.4,1.731,10.987,2.078,11.419.665.829,2.879,1.342,5.779,1.342s5.115-.514,5.779-1.342c.345-.43,2.079-3.017,2.079-11.419,0-9.522-1.966-12.023-1.986-12.047C474.222,483.409,472.384,482.7,468.844,482.7Z" fill="#ff6d00"/>
      <path id="Path_20913" data-name="Path 20913" d="M540.316,543.607V447.913h27.936v95.694Z" fill="#ff6d00"/>
      <path id="Path_20913_-_Outline" data-name="Path 20913 - Outline" d="M568.252,556.107H540.316a12.5,12.5,0,0,1-12.5-12.5V447.913a12.5,12.5,0,0,1,12.5-12.5h27.936a12.5,12.5,0,0,1,12.5,12.5v95.694A12.5,12.5,0,0,1,568.252,556.107Zm-15.436-25h2.936V460.413h-2.936Z" fill="#ff6d00"/>
    </g>
    <g id="Group_34669" data-name="Group 34669">
      <path id="Path_20914" data-name="Path 20914" d="M307.921,546.9V451.2h27.192l23.775,48.59,23.626-48.59h27.044V546.9H381.622V499.051l-15.305,31.5H351.31l-15.454-31.5V546.9Z" fill="#e06a29"/>
      <path id="Path_20914_-_Outline" data-name="Path 20914 - Outline" d="M409.558,559.4H381.622a12.5,12.5,0,0,1-12.5-12.5v-4.163a12.5,12.5,0,0,1-2.805.318H351.31a12.492,12.492,0,0,1-2.954-.354v4.2a12.5,12.5,0,0,1-12.5,12.5H307.921a12.5,12.5,0,0,1-12.5-12.5V451.2a12.5,12.5,0,0,1,12.5-12.5h27.192a12.5,12.5,0,0,1,11.228,7.006l12.512,25.571,12.42-25.543a12.5,12.5,0,0,1,11.242-7.034h27.044a12.5,12.5,0,0,1,12.5,12.5V546.9A12.5,12.5,0,0,1,409.558,559.4Zm-15.436-25h2.936V463.7h-6.723l-11.233,23.1a12.5,12.5,0,0,1,15.02,12.244Zm-73.7,0h2.935V499.051a12.5,12.5,0,0,1,15.29-12.185L327.313,463.7h-6.892Zm35.7-22.413,2.671,5.445,2.621-5.394a12.5,12.5,0,0,1-2.513.258A12.781,12.781,0,0,1,356.124,511.985Z" fill="#e06a29"/>
      <path id="Path_20915" data-name="Path 20915" d="M468.844,548.384q-23.775,0-36.331-11.59t-12.555-37.446q0-17.83,5.646-28.752a34.19,34.19,0,0,1,16.568-15.9q10.922-4.977,26.672-4.978a71.658,71.658,0,0,1,18.946,2.3,38.035,38.035,0,0,1,14.339,7.206q6.832-.3,9.659-3.492t2.823-11.07h19.762q0,14.711-4.754,21.918t-15.454,9.435q3.566,9.361,3.567,23.329,0,25.854-12.631,37.446T468.844,548.384Zm0-23.775q10.7,0,15.528-6.018t4.83-19.243q0-14.115-4.83-19.986t-15.528-5.869q-10.7,0-15.528,5.869t-4.829,19.986q0,13.227,4.829,19.243T468.844,524.609ZM457.7,444.666l13.076-30.61h21.7L478.2,444.666Z" fill="#e06a29"/>
      <path id="Path_20915_-_Outline" data-name="Path 20915 - Outline" d="M468.844,560.884c-19.019,0-34.095-5.015-44.809-14.9-11-10.152-16.577-25.841-16.577-46.631,0-14.05,2.3-25.333,7.044-34.5a46.557,46.557,0,0,1,22.484-21.53,61.024,61.024,0,0,1,9.1-3.277q.058-.145.12-.29l13.076-30.61a12.5,12.5,0,0,1,11.5-7.59h21.7a12.5,12.5,0,0,1,11.33,17.78l-9.995,21.445a53.055,53.055,0,0,1,8.31,3.509,12.5,12.5,0,0,1,12.494-12.125h19.762a12.5,12.5,0,0,1,12.5,12.5c0,12.424-2.231,21.844-6.82,28.8a32.02,32.02,0,0,1-11.011,10.266,96.129,96.129,0,0,1,1.189,15.615c0,20.8-5.612,36.5-16.679,46.655C502.79,555.878,487.749,560.884,468.844,560.884Zm-15.064-97.02a37.262,37.262,0,0,0-6.424,2.206,21.832,21.832,0,0,0-10.647,10.264c-2.822,5.454-4.251,13.2-4.251,23.013,0,13.526,2.871,23.035,8.533,28.26a29.391,29.391,0,0,0,12.677,6.539,26.946,26.946,0,0,1-10.1-7.735c-5.1-6.353-7.578-15.206-7.578-27.064,0-12.512,2.51-21.647,7.675-27.926A26.916,26.916,0,0,1,453.78,463.864Zm30.453.144a26.867,26.867,0,0,1,9.79,7.408c5.17,6.29,7.68,15.423,7.68,27.931,0,11.853-2.479,20.706-7.579,27.064a26.946,26.946,0,0,1-9.971,7.675,29.578,29.578,0,0,0,12.5-6.5c5.694-5.226,8.582-14.726,8.582-28.235,0-7.739-.925-14.092-2.748-18.88a12.5,12.5,0,0,1-.058-8.744,12.5,12.5,0,0,1-8.251-2.854,25.494,25.494,0,0,0-9.7-4.8Zm-15.388,21.984c-3.54,0-5.378.706-5.875,1.311-.018.022-1.982,2.519-1.982,12.044,0,8.4,1.731,10.987,2.078,11.419.665.829,2.879,1.342,5.779,1.342s5.115-.514,5.779-1.342c.345-.43,2.079-3.017,2.079-11.419,0-9.522-1.967-12.025-1.987-12.049C474.223,486.7,472.384,485.993,468.844,485.993Z" fill="#e06a29"/>
      <path id="Path_20916" data-name="Path 20916" d="M540.316,546.9V451.2h27.936V546.9Z" fill="#e06a29"/>
      <path id="Path_20916_-_Outline" data-name="Path 20916 - Outline" d="M568.252,559.4H540.316a12.5,12.5,0,0,1-12.5-12.5V451.2a12.5,12.5,0,0,1,12.5-12.5h27.936a12.5,12.5,0,0,1,12.5,12.5V546.9A12.5,12.5,0,0,1,568.252,559.4Zm-15.436-25h2.936V463.7h-2.936Z" fill="#e06a29"/>
    </g>
    <g id="Group_34670" data-name="Group 34670">
      <path id="Path_20917" data-name="Path 20917" d="M307.921,546.9V451.2h27.192l23.775,48.59,23.626-48.59h27.044V546.9H381.622V499.051l-15.305,31.5H351.31l-15.454-31.5V546.9Z" fill="#ce3a00"/>
      <path id="Path_20918" data-name="Path 20918" d="M468.844,548.384q-23.775,0-36.331-11.59t-12.555-37.446q0-17.83,5.646-28.752a34.19,34.19,0,0,1,16.568-15.9q10.922-4.977,26.672-4.978a71.658,71.658,0,0,1,18.946,2.3,38.035,38.035,0,0,1,14.339,7.206q6.832-.3,9.659-3.492t2.823-11.07h19.762q0,14.711-4.754,21.918t-15.454,9.435q3.566,9.361,3.567,23.329,0,25.854-12.631,37.446T468.844,548.384Zm0-23.775q10.7,0,15.528-6.018t4.83-19.243q0-14.115-4.83-19.986t-15.528-5.869q-10.7,0-15.528,5.869t-4.829,19.986q0,13.227,4.829,19.243T468.844,524.609ZM457.7,444.666l13.076-30.61h21.7L478.2,444.666Z" fill="#ce3a00"/>
      <path id="Path_20919" data-name="Path 20919" d="M540.316,546.9V451.2h27.936V546.9Z" fill="#ce3a00"/>
    </g>
    <g id="Group_34671" data-name="Group 34671">
      <path id="Path_20920" data-name="Path 20920" d="M302.473,541.743V446.049h27.192l23.775,48.59,23.626-48.59H404.11v95.694H376.174V493.9l-15.305,31.5H345.862l-15.454-31.5v47.847Z" fill="#fff"/>
      <path id="Path_20921" data-name="Path 20921" d="M463.4,543.229q-23.775,0-36.331-11.591T414.51,494.193q0-17.83,5.646-28.753a34.192,34.192,0,0,1,16.568-15.9q10.922-4.977,26.672-4.978a71.7,71.7,0,0,1,18.946,2.3,38.037,38.037,0,0,1,14.339,7.207q6.832-.3,9.659-3.492t2.823-11.07h19.762q0,14.711-4.754,21.918t-15.454,9.435q3.565,9.361,3.567,23.329,0,25.854-12.631,37.445T463.4,543.229Zm0-23.775q10.7,0,15.528-6.018t4.83-19.243q0-14.116-4.83-19.986T463.4,468.338q-10.7,0-15.528,5.869t-4.829,19.986q0,13.227,4.829,19.243T463.4,519.454Zm-11.144-79.943L465.328,408.9h21.7l-14.266,30.611Z" fill="#fff"/>
      <path id="Path_20922" data-name="Path 20922" d="M534.869,541.743V446.049H562.8v95.694Z" fill="#fff"/>
    </g>
  </g>
</svg>
