<svg xmlns="http://www.w3.org/2000/svg" width="91" height="97.483" viewBox="0 0 91 97.483">
  <g id="Group_34640" data-name="Group 34640" transform="translate(-3050.5 -2048.5)">
    <path id="Path_20769" data-name="Path 20769" d="M1762.9,1476.985v-20.239a20.119,20.119,0,0,0-10.059-17.423l-17.527-10.12a20.121,20.121,0,0,0-20.119,0l-17.527,10.12a20.118,20.118,0,0,0-10.059,17.423v20.239a20.118,20.118,0,0,0,10.059,17.423l17.527,10.12a20.117,20.117,0,0,0,20.119,0l17.527-10.12A20.118,20.118,0,0,0,1762.9,1476.985Z" transform="translate(1370.75 630.375)" fill="none" stroke="#e06a29" stroke-width="6" opacity="0.2"/>
    <path id="Path_20770" data-name="Path 20770" d="M1770.25,1478.962v-24.193a24.048,24.048,0,0,0-12.024-20.827l-20.951-12.1a24.052,24.052,0,0,0-24.049,0l-20.952,12.1a24.048,24.048,0,0,0-12.024,20.827v24.193a24.05,24.05,0,0,0,12.024,20.827l20.952,12.1a24.049,24.049,0,0,0,24.049,0l20.951-12.1A24.05,24.05,0,0,0,1770.25,1478.962Z" transform="translate(1370.75 630.375)" fill="none" stroke="#e06a29" stroke-width="1"/>
    <g id="Group_34599" data-name="Group 34599" transform="translate(3070.198 2078.879)">
      <g id="Group_34598" data-name="Group 34598">
        <g id="Group_34594" data-name="Group 34594">
          <path id="Path_20771" data-name="Path 20771" d="M1748.73,1487.042h-26.758a1.6,1.6,0,0,1-1.522-1.1l-7.317-22.48-4.506-1.7a1.6,1.6,0,1,1,1.131-2.995l5.225,1.973a1.6,1.6,0,0,1,.957,1l7.194,22.106h24.334l3.875-16.1H1720.92a1.6,1.6,0,1,1,0-3.2h32.455a1.6,1.6,0,0,1,1.556,1.975l-4.645,19.3A1.6,1.6,0,0,1,1748.73,1487.042Z" transform="translate(-1707.59 -1458.656)" fill="#e06a29"/>
        </g>
        <g id="Group_34595" data-name="Group 34595" transform="translate(14.453 15.552)">
          <path id="Path_20772" data-name="Path 20772" d="M1746.656,1477.41h-23.012a1.6,1.6,0,0,1,0-3.2h23.012a1.6,1.6,0,0,1,0,3.2Z" transform="translate(-1722.044 -1474.209)" fill="#e06a29"/>
        </g>
        <g id="Group_34596" data-name="Group 34596" transform="translate(11.944 30.303)">
          <path id="Path_20773" data-name="Path 20773" d="M1724.114,1498.117a4.578,4.578,0,1,1,4.579-4.578A4.583,4.583,0,0,1,1724.114,1498.117Zm0-5.956a1.378,1.378,0,1,0,1.378,1.378A1.38,1.38,0,0,0,1724.114,1492.161Z" transform="translate(-1719.534 -1488.96)" fill="#e06a29"/>
        </g>
        <g id="Group_34597" data-name="Group 34597" transform="translate(33.034 30.303)">
          <path id="Path_20774" data-name="Path 20774" d="M1745.2,1498.117a4.578,4.578,0,1,1,4.58-4.578A4.583,4.583,0,0,1,1745.2,1498.117Zm0-5.956a1.378,1.378,0,1,0,1.379,1.378A1.38,1.38,0,0,0,1745.2,1492.161Z" transform="translate(-1740.624 -1488.96)" fill="#e06a29"/>
        </g>
      </g>
    </g>
  </g>
</svg>
