<svg id="Group_34589" data-name="Group 34589" xmlns="http://www.w3.org/2000/svg" xmlns:xlink="http://www.w3.org/1999/xlink" width="90" height="96.423" viewBox="0 0 90 96.423">
  <defs>
    <clipPath id="clip-path">
      <rect id="Rectangle_148856" data-name="Rectangle 148856" width="90" height="96.423" fill="none" stroke="#e06a29" stroke-width="1"/>
    </clipPath>
    <clipPath id="clip-path-3">
      <rect id="Rectangle_148854" data-name="Rectangle 148854" width="81.99" height="87.538" fill="none" stroke="#e06a29" stroke-width="1"/>
    </clipPath>
  </defs>
  <g id="Group_34588" data-name="Group 34588" clip-path="url(#clip-path)">
    <g id="Group_34587" data-name="Group 34587" transform="translate(0 0)">
      <g id="Group_34586" data-name="Group 34586" clip-path="url(#clip-path)">
        <path id="Path_20760" data-name="Path 20760" d="M89.675,60.284V36.314A23.827,23.827,0,0,0,77.761,15.678L57,3.692a23.832,23.832,0,0,0-23.829,0L12.415,15.678A23.828,23.828,0,0,0,.5,36.314V60.284A23.83,23.83,0,0,0,12.415,80.92L33.173,92.905a23.828,23.828,0,0,0,23.829,0L77.761,80.92A23.829,23.829,0,0,0,89.675,60.284Z" transform="translate(-0.087 -0.088)" fill="none" stroke="#e06a29" stroke-width="1"/>
        <g id="Group_34585" data-name="Group 34585" transform="translate(4.005 4.442)" opacity="0.2">
          <g id="Group_34584" data-name="Group 34584">
            <g id="Group_34583" data-name="Group 34583" clip-path="url(#clip-path-3)">
              <path id="Path_20761" data-name="Path 20761" d="M84.893,60.032V39.324A20.585,20.585,0,0,0,74.6,21.5L56.666,11.142a20.589,20.589,0,0,0-20.586,0L18.147,21.5A20.585,20.585,0,0,0,7.854,39.324V60.032A20.585,20.585,0,0,0,18.147,77.859L36.081,88.214a20.589,20.589,0,0,0,20.586,0L74.6,77.859A20.585,20.585,0,0,0,84.893,60.032Z" transform="translate(-5.379 -5.909)" fill="none" stroke="#e06a29" stroke-width="6"/>
            </g>
          </g>
        </g>
        <path id="Path_20762" data-name="Path 20762" d="M51.534,53.018a1.321,1.321,0,0,0,.656,2.468,1.306,1.306,0,0,0,.654-.175c2.994-1.71,7.082-4.59,8.04-9.847a9.7,9.7,0,0,0-2.112-7.509,7.72,7.72,0,0,0-6.11-2.832,7.5,7.5,0,0,0-6.452,3.343,9.359,9.359,0,0,0-.708,8.687,1.321,1.321,0,0,0,2.441-1.012,6.777,6.777,0,0,1,.464-6.207,4.851,4.851,0,0,1,4.255-2.168,5.084,5.084,0,0,1,4.081,1.884,7.123,7.123,0,0,1,1.543,5.342c-.579,3.176-2.725,5.727-6.752,8.028" transform="translate(-7.827 -6.142)" fill="#e06a29"/>
        <path id="Path_20763" data-name="Path 20763" d="M66.272,61.929c-1.418-3.7-7.484-6.028-8.171-6.281a1.321,1.321,0,0,0-1.656.687c-.035.077-3.065,6.647-5.491,10.581-2.426-3.934-5.454-10.5-5.49-10.581a1.321,1.321,0,0,0-1.657-.688c-.687.253-6.754,2.58-8.174,6.281a16.461,16.461,0,0,0-.8,6.459c.007.384.014.767.014,1.145a1.321,1.321,0,0,0,2.641,0c0-.4-.007-.792-.014-1.193a13.911,13.911,0,0,1,.629-5.466c.63-1.644,3.362-3.32,5.5-4.286,1.21,2.553,4.181,8.649,6.29,11.495.012.017.028.029.041.045a1.084,1.084,0,0,0,.088.1,1.241,1.241,0,0,0,.1.095c.015.012.026.026.042.038s.036.021.054.032a1.441,1.441,0,0,0,.124.074c.036.018.073.035.11.05s.082.031.124.044.082.021.124.03a1.208,1.208,0,0,0,.124.019c.043,0,.085.006.127.006s.084,0,.127-.006.083-.011.125-.019.082-.017.123-.03.083-.027.124-.044.073-.032.11-.05a1.441,1.441,0,0,0,.124-.074c.017-.012.037-.019.054-.032s.026-.026.041-.038a1.123,1.123,0,0,0,.1-.095.972.972,0,0,0,.088-.1c.014-.017.029-.029.041-.045,2.109-2.846,5.082-8.942,6.292-11.495,2.138.965,4.869,2.641,5.5,4.286.531,1.386.822,4.322.871,8.7h-28.8a1.321,1.321,0,0,0,0,2.642H66.007a1.321,1.321,0,0,0,1.321-1.321c0-3.525-.109-8.5-1.055-10.966" transform="translate(-6.043 -9.717)" fill="#e06a29"/>
        <path id="Path_20764" data-name="Path 20764" d="M40.065,47.329a4.946,4.946,0,0,0,2.158,2.819,5.121,5.121,0,0,0,2.64.672,10.491,10.491,0,0,0,3.912-.915,1.765,1.765,0,1,0-1.013-2.43c-1.856.767-3.3.915-4.186.4A2.662,2.662,0,0,1,42.459,46a1.32,1.32,0,0,0-1.316-1.221,2.1,2.1,0,0,1-1.621-.589,2.048,2.048,0,0,1-.485-1.4,2.452,2.452,0,0,1,2.4-2.558,1.326,1.326,0,0,0,1.292-1.05,8.249,8.249,0,0,1,8.226-6.41c7.138,0,8.646,5.926,8.706,6.172a1.32,1.32,0,0,0,1.287,1.024,2.649,2.649,0,0,1,2.64,2.732,2.11,2.11,0,0,1-.513,1.452,2.282,2.282,0,0,1-1.744.622,1.321,1.321,0,0,0,0,2.641,4.825,4.825,0,0,0,3.677-1.462,4.734,4.734,0,0,0,1.222-3.253,5.317,5.317,0,0,0-4.273-5.285,11.246,11.246,0,0,0-11-7.284A10.8,10.8,0,0,0,40.4,37.7a5.134,5.134,0,0,0-4,5.1,4.683,4.683,0,0,0,1.178,3.181,4.422,4.422,0,0,0,2.492,1.349" transform="translate(-6.365 -5.271)" fill="#e06a29"/>
      </g>
    </g>
  </g>
</svg>
