<svg xmlns="http://www.w3.org/2000/svg" width="91" height="97.482" viewBox="0 0 91 97.482">
  <g id="Group_34639" data-name="Group 34639" transform="translate(-2936.5 -1552.5)">
    <path id="Path_20750" data-name="Path 20750" d="M1258.85,854.206V833.967a20.119,20.119,0,0,0-10.059-17.423l-17.527-10.119a20.118,20.118,0,0,0-20.119,0l-17.527,10.119a20.119,20.119,0,0,0-10.059,17.423v20.239a20.119,20.119,0,0,0,10.059,17.423l17.527,10.119a20.118,20.118,0,0,0,20.119,0l17.527-10.119A20.119,20.119,0,0,0,1258.85,854.206Z" transform="translate(1760.796 757.154)" fill="none" stroke="#e06a29" stroke-width="6" opacity="0.2"/>
    <path id="Path_20751" data-name="Path 20751" d="M1266.2,856.182V831.991a24.049,24.049,0,0,0-12.024-20.827l-20.951-12.1a24.048,24.048,0,0,0-24.049,0l-20.95,12.1a24.048,24.048,0,0,0-12.025,20.827v24.191a24.048,24.048,0,0,0,12.025,20.827l20.95,12.1a24.048,24.048,0,0,0,24.049,0l20.951-12.1A24.049,24.049,0,0,0,1266.2,856.182Z" transform="translate(1760.796 757.154)" fill="none" stroke="#e06a29" stroke-width="1"/>
    <path id="Path_20752" data-name="Path 20752" d="M1247.906,835.786h-34.891a6.575,6.575,0,0,0-6.567,6.567v16.388a6.575,6.575,0,0,0,6.567,6.567h34.891a6.575,6.575,0,0,0,6.567-6.567V842.353A6.575,6.575,0,0,0,1247.906,835.786Zm3.366,22.955a3.37,3.37,0,0,1-3.366,3.366h-34.891a3.37,3.37,0,0,1-3.366-3.366V842.353a3.37,3.37,0,0,1,3.366-3.366h34.891a3.37,3.37,0,0,1,3.366,3.366Z" transform="translate(1751.693 748.19)" fill="#e06a29"/>
    <path id="Path_20753" data-name="Path 20753" d="M1253.132,865.266a1.6,1.6,0,0,0-2.031,1,3.38,3.38,0,0,1-3.193,2.3h-34.893a3.394,3.394,0,0,1-3.143-2.166,1.6,1.6,0,1,0-2.988,1.151,6.615,6.615,0,0,0,6.131,4.216h34.893a6.579,6.579,0,0,0,6.223-4.467A1.6,1.6,0,0,0,1253.132,865.266Z" transform="translate(1751.682 744.86)" fill="#e06a29"/>
    <path id="Path_20754" data-name="Path 20754" d="M1231.1,848.9h0c-2.6-.456-4.1-1.131-4.1-1.851,0-.686,1.385-1.427,3.622-1.427s3.381,1.111,3.585,1.811a1.6,1.6,0,1,0,3.074-.9,6.158,6.158,0,0,0-4.858-3.919v-.315a1.6,1.6,0,1,0-3.2,0v.2c-3.3.379-5.424,2.11-5.424,4.549,0,3.819,4.9,4.681,6.745,5h0c2.723.479,4.1,1.14,4.1,1.963,0,.517-1.21,1.443-3.623,1.443-2.856,0-4.636-1.153-4.774-1.95a1.6,1.6,0,1,0-3.155.547c.4,2.307,2.826,4.017,6.126,4.476v.249a1.6,1.6,0,1,0,3.2,0v-.2c3.256-.391,5.427-2.157,5.427-4.561C1237.85,850.094,1233.121,849.26,1231.1,848.9Z" transform="translate(1751.716 748.116)" fill="#e06a29"/>
    <path id="Path_20755" data-name="Path 20755" d="M1244.583,847.586a2.96,2.96,0,1,0,2.961,2.961A2.961,2.961,0,0,0,1244.583,847.586Z" transform="translate(1749.221 748.035)" fill="#e06a29"/>
    <path id="Path_20756" data-name="Path 20756" d="M1216.337,847.586a2.96,2.96,0,1,0,2.963,2.961A2.961,2.961,0,0,0,1216.337,847.586Z" transform="translate(1754.219 748.035)" fill="#e06a29"/>
  </g>
</svg>
