<svg xmlns="http://www.w3.org/2000/svg" width="1367.037" height="227.316" viewBox="0 0 1367.037 227.316">
  <path id="Subtraction_9" data-name="Subtraction 9" d="M19492.535,8630.313H19491V8449.469c.006,0,.01,0,.01.006l.006,0c.75.966,3.574,4.535,8.43,9.926a329.2,329.2,0,0,0,24.408,24.3,346.419,346.419,0,0,0,39,30.333,302.907,302.907,0,0,0,52.189,28.06c53.824,22.285,101.229,25.612,124.7,25.612,10.59,0,17.119-.708,17.15-.715.1,0,11.256-.681,25.729-2.93,8.613-1.355,16.729-2.984,24.121-4.843a160.042,160.042,0,0,0,24.52-8.113c7.291-3.186,14.127-6.484,20.318-9.8,5.617-3.022,10.881-6.155,15.645-9.312a138.93,138.93,0,0,0,20.623-16.517,404.358,404.358,0,0,0,28.516-31.914c3.521-4.672,24.688-28.712,32.24-35.49.014-.014.029-.027.047-.043l.016-.014,0,0,.033-.029.023-.021.012-.011.01-.009.023-.022a.456.456,0,0,0,.078-.068l.049-.042a.453.453,0,0,1,.039-.035l.012-.012.012-.011.008-.008.008-.006a.039.039,0,0,0,.016-.013l.037-.035c.061-.055.135-.123.23-.206l.012,0,.172-.163a.874.874,0,0,0,.148-.132.208.208,0,0,0,.051-.042l.027-.025.025-.026.064-.048a.554.554,0,0,1,.115-.1l.049-.047.01-.01.029-.027.041-.038.027-.023.023-.022.029-.026.148-.126.035-.032.064-.058.016-.011.053-.052.01-.009c3.68-3.314,8.26-7.439,13.145-11.33a85.45,85.45,0,0,1,15-10.009h.006l.01-.006.074-.036.09-.043.078-.038.014-.007a119.258,119.258,0,0,1,16.445-7.034,68.241,68.241,0,0,1,21.242-3.282h.2a91.444,91.444,0,0,1,22.361,2.615,117.775,117.775,0,0,1,21.227,7.831,134.624,134.624,0,0,1,15.367,9c5.994,3.922,13.045,8.843,20.391,14.231,15.078,11.077,29.266,22.532,37.953,30.644,2.625,2.461,6.2,5.823,11.24,10.582l.7.656,1.355,1.281,1.617,1.528.158.147.025.026.008.007c21.445,20.278,50.814,48.05,62.365,56.92,1.3.992,2.943,2.339,5.127,4.134l.031.025.031.017.016.016c4.813,3.967,11.4,9.4,20.471,15.8a278.766,278.766,0,0,0,33.2,20.124c32.459,16.727,69.355,27.807,109.664,32.934a525.96,525.96,0,0,0,66.359,4.164c74.014,0,137.967-15.265,173.141-29.551,23.617-9.593,57.1-27.824,87.371-47.58a559.785,559.785,0,0,0,47.5-34.424c15.732-12.832,28.645-25.217,38.379-36.809,24.293-28.91,43.436-51.667,55.357-65.809.148-.171.279-.326.4-.473l.09-.109.053-.059c.043-.053.064-.079.078-.094a.337.337,0,0,0,.029-.043l.008-.008.006-.006c.006-.006.008-.009.008-.012l.023-.026a.326.326,0,0,0,.053-.069h.01c.006,0,.018-.016.018-.021l0,0,0,0c.006,0,.012-.008.012-.012s0-.009,0-.01l.01-.011a.017.017,0,0,0,.006-.011l9.111-9.228.01,226.319h-1365.5l0,1Z" transform="translate(-19491 -8402.997)" fill="#fff"/>
</svg>
