<svg xmlns="http://www.w3.org/2000/svg" width="38" height="58" viewBox="0 0 38 58">
  <g id="Group_34917" data-name="Group 34917" transform="translate(-211.367 1761.13)">
    <path id="Path_22133" data-name="Path 22133" d="M243.066-1737.328a9.358,9.358,0,0,1-2.432-3.484,9.508,9.508,0,0,1-.706-2.23.019.019,0,0,0,0-.013c0-.026-.009-.053-.012-.08-.006,0-.006,0,0-.009a5.99,5.99,0,0,1,.377-3.383,7.916,7.916,0,0,0-4.151,5.559,9.349,9.349,0,0,0,.03,3.835,11.812,11.812,0,0,0,2.551,5.076c-.282-.214-6.15-1.264-5.872-6.659a20.339,20.339,0,0,1,.434-2.935c1.2-5.846,3.907-14.392-3.365-19.481a9.418,9.418,0,0,1,.766,5.975c-.726,3.768-3.156,6.972-5.387,9.96a37.041,37.041,0,0,0-3.7,5.5,11.172,11.172,0,0,0-1.238,4.627c-.178,5.309,2.111,7.06,2.029,7.06l-.009,0c-4.2-1.773-5.811-6.5-3.973-9.5-.065.036-.131.076-.2.12a3.736,3.736,0,0,0-.665.595l-.01.008a19.5,19.5,0,0,0-6.168,14.287,19.191,19.191,0,0,0,19,19.374,19.19,19.19,0,0,0,19-19.374A19.784,19.784,0,0,0,243.066-1737.328Z" transform="translate(0 0)" fill="#aa1f1f"/>
    <g id="Group_34916" data-name="Group 34916" transform="translate(217.756 -1723.253)">
      <path id="Path_22134" data-name="Path 22134" d="M282.263-1343.12v-8.951h1.807v3.523h3.541v-3.523h1.807v8.951h-1.807v-3.914H284.07v3.914Z" transform="translate(-282.263 1352.224)" fill="#fff"/>
      <path id="Path_22135" data-name="Path 22135" d="M377.042-1349.059a5.692,5.692,0,0,1,.409-2.3,4.213,4.213,0,0,1,.833-1.227,3.484,3.484,0,0,1,1.157-.806,4.915,4.915,0,0,1,1.929-.354,4.2,4.2,0,0,1,3.166,1.227,4.7,4.7,0,0,1,1.188,3.413,4.688,4.688,0,0,1-1.178,3.392,4.17,4.17,0,0,1-3.15,1.224,4.212,4.212,0,0,1-3.175-1.218A4.622,4.622,0,0,1,377.042-1349.059Zm1.862-.061a3.353,3.353,0,0,0,.7,2.3,2.287,2.287,0,0,0,1.783.785,2.268,2.268,0,0,0,1.774-.778,3.421,3.421,0,0,0,.693-2.335,3.366,3.366,0,0,0-.675-2.3,2.283,2.283,0,0,0-1.792-.757,2.3,2.3,0,0,0-1.8.766A3.382,3.382,0,0,0,378.9-1349.12Z" transform="translate(-368.384 1353.742)" fill="#fff"/>
      <path id="Path_22136" data-name="Path 22136" d="M483.166-1343.12v-7.437H480.51v-1.514h7.113v1.514h-2.65v7.437Z" transform="translate(-462.401 1352.224)" fill="#fff"/>
    </g>
  </g>
</svg>
