<svg xmlns="http://www.w3.org/2000/svg" width="323.236" height="137.781" viewBox="0 0 323.236 137.781">
  <g id="Group_34665" data-name="Group 34665" transform="translate(-273.81 -476.421)">
    <g id="Group_34659" data-name="Group 34659" transform="translate(304.81 507.422)">
      <g id="Group_34658" data-name="Group 34658" transform="translate(0)">
        <path id="Path_20881" data-name="Path 20881" d="M334.9,585.641a78.746,78.746,0,0,1-14.037-1.2,46.738,46.738,0,0,1-11.3-3.367V563.386a58.957,58.957,0,0,0,11.413,3.88,51.229,51.229,0,0,0,11.755,1.483,28.921,28.921,0,0,0,8.616-.97q2.911-.968,2.91-4.394a4.629,4.629,0,0,0-1.655-3.766,16.1,16.1,0,0,0-5.136-2.511q-3.482-1.139-9.074-2.853a49.16,49.16,0,0,1-11.754-5.25,16.634,16.634,0,0,1-6.22-6.961A24.023,24.023,0,0,1,308.541,532q0-10.841,7.7-16.492t22.882-5.649a79.461,79.461,0,0,1,12.5,1.027,75.946,75.946,0,0,1,10.442,2.282v17.8a53.981,53.981,0,0,0-10.271-3.081,50.714,50.714,0,0,0-9.245-.913,39.493,39.493,0,0,0-8.559.8q-3.539.8-3.538,4.109a4.36,4.36,0,0,0,3.024,4.165,86.6,86.6,0,0,0,10.785,3.367q9.015,2.4,13.752,5.82a17.581,17.581,0,0,1,6.448,7.932,28.619,28.619,0,0,1,1.712,10.214,19.535,19.535,0,0,1-7.761,16.149Q350.652,585.641,334.9,585.641Z" transform="translate(-308.541 -509.86)" fill="#fff" stroke="#fff" stroke-linecap="round" stroke-linejoin="round" stroke-width="62"/>
        <path id="Path_20882" data-name="Path 20882" d="M409.624,585.341l28.189-73.5h22.712l28.189,73.5H466.345l-6.163-15.635h-22.14l-6.049,15.635ZM440.895,554.3h16.433l-8.216-21.57Z" transform="translate(-351.42 -510.701)" fill="#fff" stroke="#fff" stroke-linecap="round" stroke-linejoin="round" stroke-width="62"/>
        <path id="Path_20883" data-name="Path 20883" d="M560.853,585.341v-73.5h21.456v57.063h33.1v16.435Z" transform="translate(-415.57 -510.701)" fill="#fff" stroke="#fff" stroke-linecap="round" stroke-linejoin="round" stroke-width="62"/>
        <path id="Path_20884" data-name="Path 20884" d="M665.505,585.341v-73.5H721.2v16.434H686.961V540.26h30.016v16.663H686.961v11.983H721.2v16.435Z" transform="translate(-459.963 -510.701)" fill="#fff" stroke="#fff" stroke-linecap="round" stroke-linejoin="round" stroke-width="62"/>
      </g>
    </g>
    <g id="Group_34660" data-name="Group 34660" transform="translate(304.81 508.049)">
      <path id="Path_20885" data-name="Path 20885" d="M334.9,586.73a78.752,78.752,0,0,1-14.037-1.2,46.739,46.739,0,0,1-11.3-3.367V564.476a59.006,59.006,0,0,0,11.413,3.88,51.229,51.229,0,0,0,11.755,1.483,28.919,28.919,0,0,0,8.616-.97q2.911-.968,2.91-4.394a4.629,4.629,0,0,0-1.655-3.766,16.089,16.089,0,0,0-5.136-2.511q-3.482-1.139-9.074-2.853a49.159,49.159,0,0,1-11.754-5.25,16.634,16.634,0,0,1-6.22-6.961,24.023,24.023,0,0,1-1.883-10.043q0-10.841,7.7-16.492t22.882-5.649a79.454,79.454,0,0,1,12.5,1.027,75.761,75.761,0,0,1,10.442,2.282v17.8a53.941,53.941,0,0,0-10.271-3.082,50.717,50.717,0,0,0-9.245-.913,39.5,39.5,0,0,0-8.559.8q-3.539.8-3.538,4.108a4.36,4.36,0,0,0,3.024,4.166,86.686,86.686,0,0,0,10.785,3.367q9.015,2.4,13.752,5.82a17.58,17.58,0,0,1,6.448,7.932,28.624,28.624,0,0,1,1.712,10.215,19.537,19.537,0,0,1-7.761,16.149Q350.652,586.731,334.9,586.73Z" transform="translate(-308.541 -510.95)" fill="#992f00" stroke="#992f00" stroke-linecap="round" stroke-linejoin="round" stroke-width="44"/>
      <path id="Path_20886" data-name="Path 20886" d="M409.624,586.43l28.189-73.5h22.712l28.189,73.5H466.345l-6.163-15.635h-22.14l-6.049,15.635Zm31.271-31.042h16.433l-8.216-21.57Z" transform="translate(-351.42 -511.791)" fill="#992f00" stroke="#992f00" stroke-linecap="round" stroke-linejoin="round" stroke-width="44"/>
      <path id="Path_20887" data-name="Path 20887" d="M560.853,586.43v-73.5h21.456V570h33.1V586.43Z" transform="translate(-415.57 -511.791)" fill="#992f00" stroke="#992f00" stroke-linecap="round" stroke-linejoin="round" stroke-width="44"/>
      <path id="Path_20888" data-name="Path 20888" d="M665.505,586.43v-73.5H721.2v16.434H686.961V541.35h30.016v16.663H686.961V570H721.2V586.43Z" transform="translate(-459.963 -511.791)" fill="#992f00" stroke="#992f00" stroke-linecap="round" stroke-linejoin="round" stroke-width="44"/>
    </g>
    <g id="Group_34661" data-name="Group 34661" transform="translate(304.081 505.744)">
      <path id="Path_20889" data-name="Path 20889" d="M333.639,582.726a78.756,78.756,0,0,1-14.037-1.2,46.747,46.747,0,0,1-11.3-3.367V560.471a58.968,58.968,0,0,0,11.412,3.88,51.2,51.2,0,0,0,11.755,1.483,28.9,28.9,0,0,0,8.616-.97Q343,563.9,343,560.471a4.628,4.628,0,0,0-1.655-3.766,16.086,16.086,0,0,0-5.135-2.511q-3.482-1.14-9.074-2.853a49.147,49.147,0,0,1-11.754-5.25,16.632,16.632,0,0,1-6.22-6.962,24.025,24.025,0,0,1-1.883-10.043q0-10.841,7.7-16.491t22.882-5.649a79.448,79.448,0,0,1,12.5,1.027,75.9,75.9,0,0,1,10.442,2.283v17.8a53.967,53.967,0,0,0-10.271-3.081,50.716,50.716,0,0,0-9.245-.913,39.543,39.543,0,0,0-8.559.8q-3.539.8-3.538,4.109a4.36,4.36,0,0,0,3.024,4.165A86.568,86.568,0,0,0,343,536.5q9.014,2.4,13.753,5.82a17.584,17.584,0,0,1,6.448,7.932,28.619,28.619,0,0,1,1.712,10.214,19.535,19.535,0,0,1-7.76,16.149Q349.386,582.727,333.639,582.726Z" transform="translate(-307.276 -506.946)" fill="#ff6d00" stroke="#ff6d00" stroke-linecap="round" stroke-linejoin="round" stroke-width="25"/>
      <path id="Path_20890" data-name="Path 20890" d="M408.358,582.425l28.189-73.5h22.711l28.189,73.5H465.079l-6.163-15.635h-22.14l-6.048,15.635Zm31.271-31.043h16.434l-8.217-21.57Z" transform="translate(-350.154 -507.787)" fill="#ff6d00" stroke="#ff6d00" stroke-linecap="round" stroke-linejoin="round" stroke-width="25"/>
      <path id="Path_20891" data-name="Path 20891" d="M559.588,582.425v-73.5h21.456v57.063h33.1v16.435Z" transform="translate(-414.305 -507.787)" fill="#ff6d00" stroke="#ff6d00" stroke-linecap="round" stroke-linejoin="round" stroke-width="25"/>
      <path id="Path_20892" data-name="Path 20892" d="M664.239,582.425v-73.5h55.694v16.434H685.695v11.983H715.71v16.663H685.695v11.983h34.239v16.435Z" transform="translate(-458.698 -507.787)" fill="#ff6d00" stroke="#ff6d00" stroke-linecap="round" stroke-linejoin="round" stroke-width="25"/>
    </g>
    <g id="Group_34662" data-name="Group 34662" transform="translate(303.42 509.191)">
      <path id="Path_20893" data-name="Path 20893" d="M332.49,588.713a78.694,78.694,0,0,1-14.037-1.2,46.742,46.742,0,0,1-11.3-3.367V566.458a58.962,58.962,0,0,0,11.412,3.88,51.23,51.23,0,0,0,11.755,1.483,28.923,28.923,0,0,0,8.616-.97q2.911-.968,2.91-4.394a4.629,4.629,0,0,0-1.655-3.766,16.1,16.1,0,0,0-5.136-2.511q-3.482-1.139-9.074-2.853a49.179,49.179,0,0,1-11.754-5.25,16.634,16.634,0,0,1-6.22-6.962,24.025,24.025,0,0,1-1.883-10.043q0-10.841,7.7-16.492t22.882-5.649a79.469,79.469,0,0,1,12.5,1.027,75.845,75.845,0,0,1,10.442,2.283v17.8a53.943,53.943,0,0,0-10.271-3.081,50.671,50.671,0,0,0-9.245-.913,39.5,39.5,0,0,0-8.559.8q-3.539.8-3.538,4.108a4.36,4.36,0,0,0,3.024,4.166,86.627,86.627,0,0,0,10.785,3.367q9.015,2.4,13.752,5.82a17.579,17.579,0,0,1,6.448,7.932,28.624,28.624,0,0,1,1.712,10.215A19.535,19.535,0,0,1,356,582.607Q348.238,588.713,332.49,588.713Z" transform="translate(-306.127 -512.932)" fill="#e06a29" stroke="#e06a29" stroke-linecap="round" stroke-linejoin="round" stroke-width="25"/>
      <path id="Path_20894" data-name="Path 20894" d="M407.209,588.411l28.189-73.5H458.11l28.189,73.5H463.93l-6.163-15.635h-22.14l-6.049,15.635Zm31.271-31.042h16.434L446.7,535.8Z" transform="translate(-349.005 -513.773)" fill="#e06a29" stroke="#e06a29" stroke-linecap="round" stroke-linejoin="round" stroke-width="25"/>
      <path id="Path_20895" data-name="Path 20895" d="M558.438,588.411v-73.5h21.456v57.063h33.1v16.434Z" transform="translate(-413.156 -513.773)" fill="#e06a29" stroke="#e06a29" stroke-linecap="round" stroke-linejoin="round" stroke-width="25"/>
      <path id="Path_20896" data-name="Path 20896" d="M663.09,588.411v-73.5h55.694v16.435H684.546v11.983h30.016v16.663H684.546v11.983h34.238v16.434Z" transform="translate(-457.549 -513.773)" fill="#e06a29" stroke="#e06a29" stroke-linecap="round" stroke-linejoin="round" stroke-width="25"/>
    </g>
    <g id="Group_34663" data-name="Group 34663" transform="translate(302.543 508.049)">
      <path id="Path_20897" data-name="Path 20897" d="M330.967,586.73a78.752,78.752,0,0,1-14.037-1.2,46.745,46.745,0,0,1-11.3-3.367V564.476a59,59,0,0,0,11.412,3.88,51.233,51.233,0,0,0,11.755,1.483,28.917,28.917,0,0,0,8.616-.97q2.911-.968,2.91-4.394a4.629,4.629,0,0,0-1.655-3.766,16.089,16.089,0,0,0-5.136-2.511q-3.482-1.139-9.074-2.853a49.158,49.158,0,0,1-11.755-5.25,16.634,16.634,0,0,1-6.22-6.961,24.024,24.024,0,0,1-1.883-10.043q0-10.841,7.7-16.492t22.882-5.649a79.454,79.454,0,0,1,12.5,1.027,75.743,75.743,0,0,1,10.442,2.282v17.8a53.942,53.942,0,0,0-10.271-3.082,50.717,50.717,0,0,0-9.245-.913,39.5,39.5,0,0,0-8.559.8q-3.539.8-3.538,4.108a4.36,4.36,0,0,0,3.024,4.166,86.721,86.721,0,0,0,10.785,3.367q9.015,2.4,13.752,5.82a17.58,17.58,0,0,1,6.448,7.932,28.625,28.625,0,0,1,1.712,10.215,19.537,19.537,0,0,1-7.761,16.149Q346.715,586.731,330.967,586.73Z" transform="translate(-304.604 -510.95)" fill="#ce3a00"/>
      <path id="Path_20898" data-name="Path 20898" d="M405.686,586.43l28.189-73.5h22.711l28.189,73.5H462.407l-6.163-15.635H434.1l-6.049,15.635Zm31.271-31.042h16.434l-8.217-21.57Z" transform="translate(-347.482 -511.791)" fill="#ce3a00"/>
      <path id="Path_20899" data-name="Path 20899" d="M556.915,586.43v-73.5h21.456V570h33.1V586.43Z" transform="translate(-411.633 -511.791)" fill="#ce3a00"/>
      <path id="Path_20900" data-name="Path 20900" d="M661.567,586.43v-73.5h55.694v16.434H683.023V541.35h30.016v16.663H683.023V570h34.238V586.43Z" transform="translate(-456.026 -511.791)" fill="#ce3a00"/>
    </g>
    <g id="Group_34664" data-name="Group 34664" transform="translate(299.745 504.112)">
      <path id="Path_20901" data-name="Path 20901" d="M326.108,579.892a78.757,78.757,0,0,1-14.037-1.2,46.776,46.776,0,0,1-11.3-3.367V557.638a59,59,0,0,0,11.412,3.88A51.233,51.233,0,0,0,323.94,563a28.92,28.92,0,0,0,8.616-.97q2.911-.969,2.91-4.394a4.628,4.628,0,0,0-1.655-3.766,16.086,16.086,0,0,0-5.135-2.511q-3.483-1.139-9.074-2.853a49.181,49.181,0,0,1-11.754-5.25,16.639,16.639,0,0,1-6.22-6.962,24.026,24.026,0,0,1-1.883-10.043q0-10.842,7.7-16.492t22.882-5.649a79.454,79.454,0,0,1,12.5,1.027,75.734,75.734,0,0,1,10.442,2.283v17.8A53.934,53.934,0,0,0,343,522.144a50.717,50.717,0,0,0-9.245-.913,39.5,39.5,0,0,0-8.559.8q-3.539.8-3.538,4.108a4.361,4.361,0,0,0,3.024,4.166,86.748,86.748,0,0,0,10.785,3.367q9.015,2.4,13.753,5.82a17.582,17.582,0,0,1,6.448,7.932,28.624,28.624,0,0,1,1.712,10.215,19.536,19.536,0,0,1-7.76,16.149Q341.855,579.893,326.108,579.892Z" transform="translate(-299.745 -504.112)" fill="#fff"/>
      <path id="Path_20902" data-name="Path 20902" d="M400.827,579.591l28.189-73.5h22.711l28.189,73.5H457.548l-6.163-15.635h-22.14L423.2,579.591ZM432.1,548.549h16.434l-8.217-21.57Z" transform="translate(-342.623 -504.953)" fill="#fff"/>
      <path id="Path_20903" data-name="Path 20903" d="M552.057,579.591v-73.5h21.456v57.063h33.1v16.434Z" transform="translate(-406.774 -504.953)" fill="#fff"/>
      <path id="Path_20904" data-name="Path 20904" d="M656.709,579.591v-73.5H712.4v16.434H678.165v11.984H708.18v16.663H678.165v11.983H712.4v16.434Z" transform="translate(-451.167 -504.953)" fill="#fff"/>
    </g>
  </g>
</svg>
