<svg xmlns="http://www.w3.org/2000/svg" width="273.783" height="136.169" viewBox="0 0 273.783 136.169">
  <g id="Group_34657" data-name="Group 34657" transform="translate(-345.919 -516.877)">
    <g id="Group_34653" data-name="Group 34653">
      <path id="Path_20869" data-name="Path 20869" d="M376.919,620.929V548.994h21V575.8h24.8V548.994h21v71.935h-21V594.121h-24.8v26.808Z" fill="#fff"/>
      <path id="Path_20869_-_Outline" data-name="Path 20869 - Outline" d="M443.716,651.929h-21a30.889,30.889,0,0,1-12.4-2.579,30.889,30.889,0,0,1-12.4,2.579h-21a31,31,0,0,1-31-31V548.994a31,31,0,0,1,31-31h21a30.889,30.889,0,0,1,12.4,2.579,30.889,30.889,0,0,1,12.4-2.579h21a31,31,0,0,1,31,31v71.935A31,31,0,0,1,443.716,651.929Z" fill="#fff"/>
      <path id="Path_20870" data-name="Path 20870" d="M488.283,622.046q-17.872,0-27.311-8.712t-9.438-28.149q0-13.4,4.244-21.614a25.7,25.7,0,0,1,12.455-11.952q8.209-3.741,20.05-3.742t20.051,3.742a25.712,25.712,0,0,1,12.454,11.952q4.243,8.21,4.245,21.614,0,19.436-9.495,28.149T488.283,622.046Zm0-17.872q8.043,0,11.673-4.524t3.63-14.465q0-10.611-3.63-15.024t-11.673-4.412q-8.041,0-11.673,4.412t-3.63,15.024q0,9.944,3.63,14.465T488.283,604.174Z" fill="#fff"/>
      <path id="Path_20870_-_Outline" data-name="Path 20870 - Outline" d="M488.283,653.046c-19.9,0-36.165-5.7-48.338-16.933-12.88-11.89-19.411-29.024-19.411-50.928,0-14.1,2.522-25.828,7.71-35.857a56.873,56.873,0,0,1,27.126-25.915c9.521-4.339,20.592-6.537,32.913-6.537s23.39,2.2,32.9,6.532a56.9,56.9,0,0,1,27.137,25.921c5.189,10.038,7.71,21.765,7.71,35.855,0,21.937-6.572,39.091-19.533,50.987C524.3,647.37,508.075,653.046,488.283,653.046Zm-5.347-62.414a30.434,30.434,0,0,0,5.347.414,25.431,25.431,0,0,0,5.351-.467,30.867,30.867,0,0,0,.4-5.394,33.421,33.421,0,0,0-.435-5.888,33.785,33.785,0,0,0-10.634,0,34.014,34.014,0,0,0-.43,5.886A31.166,31.166,0,0,0,482.936,590.633Z" fill="#fff"/>
      <path id="Path_20871" data-name="Path 20871" d="M547.484,620.929v-56.3H527.266V548.994H588.7v15.638H568.484v56.3Z" fill="#fff"/>
      <path id="Path_20871_-_Outline" data-name="Path 20871 - Outline" d="M568.484,651.929h-21a31,31,0,0,1-31-31V593.706a31.011,31.011,0,0,1-20.218-29.074V548.994a31,31,0,0,1,31-31H588.7a31,31,0,0,1,31,31v15.638a31.011,31.011,0,0,1-20.218,29.074v27.223A31,31,0,0,1,568.484,651.929Z" fill="#fff"/>
    </g>
    <g id="Group_34654" data-name="Group 34654">
      <path id="Path_20872" data-name="Path 20872" d="M376.965,620.929V548.994h21V575.8h24.8V548.994h21v71.935h-21V594.121h-24.8v26.808Z" fill="#992f00"/>
      <path id="Path_20872_-_Outline" data-name="Path 20872 - Outline" d="M443.762,642.929h-21a21.9,21.9,0,0,1-12.4-3.824,21.9,21.9,0,0,1-12.4,3.824h-21a22,22,0,0,1-22-22V548.994a22,22,0,0,1,22-22h21a21.9,21.9,0,0,1,12.4,3.824,21.9,21.9,0,0,1,12.4-3.824h21a22,22,0,0,1,22,22v71.935A22,22,0,0,1,443.762,642.929Z" fill="#992f00"/>
      <path id="Path_20873" data-name="Path 20873" d="M488.329,622.046q-17.873,0-27.31-8.712t-9.439-28.148q0-13.405,4.245-21.615a25.705,25.705,0,0,1,12.455-11.952q8.209-3.741,20.049-3.742t20.051,3.742a25.716,25.716,0,0,1,12.454,11.952q4.245,8.211,4.245,21.615,0,19.436-9.495,28.148T488.329,622.046Zm0-17.872q8.044,0,11.673-4.523t3.631-14.465q0-10.611-3.631-15.024t-11.673-4.413q-8.042,0-11.672,4.413t-3.63,15.024q0,9.942,3.63,14.465T488.329,604.174Z" fill="#992f00"/>
      <path id="Path_20873_-_Outline" data-name="Path 20873 - Outline" d="M488.329,644.046c-17.568,0-31.778-4.895-42.234-14.548-10.958-10.114-16.516-25.023-16.516-44.312,0-12.623,2.193-23,6.7-31.721A47.961,47.961,0,0,1,459.153,531.6c8.337-3.8,18.152-5.725,29.176-5.725S509.168,527.8,517.5,531.6a47.984,47.984,0,0,1,22.873,21.864c4.512,8.728,6.7,19.1,6.7,31.723,0,19.311-5.591,34.235-16.619,44.356C519.97,639.167,505.8,644.046,488.329,644.046Z" fill="#992f00"/>
      <path id="Path_20874" data-name="Path 20874" d="M547.531,620.929v-56.3H527.313V548.994h61.435v15.638H568.53v56.3Z" fill="#992f00"/>
      <path id="Path_20874_-_Outline" data-name="Path 20874 - Outline" d="M568.53,642.929h-21a22,22,0,0,1-22-22V586.561a22,22,0,0,1-20.218-21.929V548.994a22,22,0,0,1,22-22h61.435a22,22,0,0,1,22,22v15.638a22,22,0,0,1-20.218,21.929v34.368A22,22,0,0,1,568.53,642.929Z" fill="#992f00"/>
    </g>
    <g id="Group_34655" data-name="Group 34655">
      <path id="Path_20875" data-name="Path 20875" d="M375.862,617.4V545.466h21v26.808h24.8V545.466h21V617.4h-21V590.593h-24.8V617.4Z" fill="#ff6d00"/>
      <path id="Path_20875_-_Outline" data-name="Path 20875 - Outline" d="M442.658,629.9h-21a12.5,12.5,0,0,1-12.4-10.9,12.5,12.5,0,0,1-12.4,10.9h-21a12.5,12.5,0,0,1-12.5-12.5V545.466a12.5,12.5,0,0,1,12.5-12.5h21a12.5,12.5,0,0,1,12.4,10.9,12.5,12.5,0,0,1,12.4-10.9h21a12.5,12.5,0,0,1,12.5,12.5V617.4A12.5,12.5,0,0,1,442.658,629.9Z" fill="#ff6d00"/>
      <path id="Path_20876" data-name="Path 20876" d="M487.226,618.518q-17.873,0-27.311-8.713t-9.438-28.148q0-13.4,4.244-21.614a25.705,25.705,0,0,1,12.455-11.952q8.209-3.741,20.05-3.742t20.05,3.742a25.718,25.718,0,0,1,12.455,11.952q4.243,8.209,4.245,21.614,0,19.436-9.495,28.148T487.226,618.518Zm0-17.872q8.043,0,11.672-4.524t3.631-14.465q0-10.611-3.631-15.024t-11.672-4.412q-8.043,0-11.673,4.412t-3.63,15.024q0,9.944,3.63,14.465T487.226,600.646Z" fill="#ff6d00"/>
      <path id="Path_20876_-_Outline" data-name="Path 20876 - Outline" d="M487.226,631.018c-15.1,0-27.145-4.047-35.79-12.029-8.93-8.24-13.459-20.8-13.459-37.332,0-11.07,1.845-20.018,5.641-27.357a38.036,38.036,0,0,1,18.372-17.583c7.09-3.231,15.58-4.869,25.236-4.869s18.146,1.638,25.233,4.867A38.056,38.056,0,0,1,530.834,554.3c3.8,7.346,5.642,16.294,5.642,27.357,0,16.541-4.556,29.109-13.543,37.357C514.254,626.979,502.24,631.018,487.226,631.018Zm-1.86-42.953c.3,0,.926.081,1.86.081a8.435,8.435,0,0,0,2.264-.234,40.205,40.205,0,0,0,.539-6.255,22.231,22.231,0,0,0-.776-6.881c-.238.051-.928-.055-2.027-.055a9.1,9.1,0,0,0-2.312.23,58.2,58.2,0,0,0-.491,6.706,18.408,18.408,0,0,0,.8,6.419A.683.683,0,0,1,485.366,588.065Z" fill="#ff6d00"/>
      <path id="Path_20877" data-name="Path 20877" d="M546.427,617.4V561.1H526.209V545.466h61.435V561.1H567.427v56.3Z" fill="#ff6d00"/>
      <path id="Path_20877_-_Outline" data-name="Path 20877 - Outline" d="M567.427,629.9h-21a12.5,12.5,0,0,1-12.5-12.5V573.6h-7.718a12.5,12.5,0,0,1-12.5-12.5V545.466a12.5,12.5,0,0,1,12.5-12.5h61.435a12.5,12.5,0,0,1,12.5,12.5V561.1a12.5,12.5,0,0,1-12.5,12.5h-7.717v43.8A12.5,12.5,0,0,1,567.427,629.9Z" fill="#ff6d00"/>
    </g>
    <g id="Group_34656" data-name="Group 34656">
      <path id="Path_20878" data-name="Path 20878" d="M375.862,619.434V547.5h21v26.808h24.8V547.5h21v71.935h-21V592.626h-24.8v26.808Z" fill="#e06a29"/>
      <path id="Path_20878_-_Outline" data-name="Path 20878 - Outline" d="M442.658,631.934h-21a12.5,12.5,0,0,1-12.4-10.9,12.5,12.5,0,0,1-12.4,10.9h-21a12.5,12.5,0,0,1-12.5-12.5V547.5a12.5,12.5,0,0,1,12.5-12.5h21a12.5,12.5,0,0,1,12.4,10.9,12.5,12.5,0,0,1,12.4-10.9h21a12.5,12.5,0,0,1,12.5,12.5v71.935A12.5,12.5,0,0,1,442.658,631.934Z" fill="#e06a29"/>
      <path id="Path_20879" data-name="Path 20879" d="M487.226,620.551q-17.873,0-27.311-8.713t-9.438-28.148q0-13.406,4.244-21.615a25.7,25.7,0,0,1,12.455-11.951q8.209-3.741,20.05-3.742t20.05,3.742a25.711,25.711,0,0,1,12.455,11.951q4.243,8.211,4.245,21.615,0,19.435-9.495,28.148T487.226,620.551Zm0-17.873q8.043,0,11.672-4.523t3.631-14.465q0-10.611-3.631-15.024t-11.672-4.412q-8.043,0-11.673,4.412t-3.63,15.024q0,9.942,3.63,14.465T487.226,602.678Z" fill="#e06a29"/>
      <path id="Path_20879_-_Outline" data-name="Path 20879 - Outline" d="M487.226,633.051c-15.1,0-27.143-4.047-35.789-12.028-8.931-8.241-13.46-20.8-13.46-37.333,0-11.069,1.845-20.018,5.641-27.357a38.03,38.03,0,0,1,18.374-17.583c7.088-3.23,15.578-4.868,25.234-4.868s18.146,1.638,25.233,4.867a38.048,38.048,0,0,1,18.374,17.583c3.8,7.348,5.642,16.3,5.642,27.358,0,16.541-4.556,29.109-13.543,37.357C514.252,629.013,502.239,633.051,487.226,633.051Zm-1.86-42.953c.3,0,.926.08,1.86.08a8.447,8.447,0,0,0,2.265-.234,40.312,40.312,0,0,0,.538-6.254,22.231,22.231,0,0,0-.776-6.881c-.238.052-.927-.055-2.027-.055a9.1,9.1,0,0,0-2.312.23,58.2,58.2,0,0,0-.491,6.706,18.415,18.415,0,0,0,.8,6.418A.688.688,0,0,1,485.366,590.1Z" fill="#e06a29"/>
      <path id="Path_20880" data-name="Path 20880" d="M546.427,619.434v-56.3H526.209V547.5h61.435v15.638H567.427v56.3Z" fill="#e06a29"/>
      <path id="Path_20880_-_Outline" data-name="Path 20880 - Outline" d="M567.427,631.934h-21a12.5,12.5,0,0,1-12.5-12.5v-43.8h-7.718a12.5,12.5,0,0,1-12.5-12.5V547.5a12.5,12.5,0,0,1,12.5-12.5h61.435a12.5,12.5,0,0,1,12.5,12.5v15.638a12.5,12.5,0,0,1-12.5,12.5h-7.717v43.8A12.5,12.5,0,0,1,567.427,631.934Z" fill="#e06a29"/>
    </g>
    <path id="Path_23800" data-name="Path 23800" d="M5.027,0V-71.935h21v26.808h24.8V-71.935h21V0h-21V-26.808h-24.8V0ZM116.392,1.117Q98.52,1.117,89.081-7.6T79.643-35.744q0-13.4,4.245-21.614A25.7,25.7,0,0,1,96.342-69.31q8.21-3.742,20.05-3.742t20.05,3.742A25.7,25.7,0,0,1,148.9-57.358q4.245,8.21,4.245,21.614,0,19.436-9.495,28.149T116.392,1.117Zm0-17.872q8.042,0,11.673-4.524t3.63-14.465q0-10.612-3.63-15.024T116.392-55.18q-8.042,0-11.673,4.412t-3.63,15.024q0,9.941,3.63,14.465T116.392-16.755ZM175.593,0V-56.3H155.376V-71.935h61.435V-56.3H196.593V0Z" transform="translate(371.205 618.518)" fill="#ce3a00"/>
    <path id="Path_23799" data-name="Path 23799" d="M5.027,0V-71.935h21v26.808h24.8V-71.935h21V0h-21V-26.808h-24.8V0ZM116.392,1.117Q98.52,1.117,89.081-7.6T79.643-35.744q0-13.4,4.245-21.614A25.7,25.7,0,0,1,96.342-69.31q8.21-3.742,20.05-3.742t20.05,3.742A25.7,25.7,0,0,1,148.9-57.358q4.245,8.21,4.245,21.614,0,19.436-9.495,28.149T116.392,1.117Zm0-17.872q8.042,0,11.673-4.524t3.63-14.465q0-10.612-3.63-15.024T116.392-55.18q-8.042,0-11.673,4.412t-3.63,15.024q0,9.941,3.63,14.465T116.392-16.755ZM175.593,0V-56.3H155.376V-71.935h61.435V-56.3H196.593V0Z" transform="translate(368.227 614.931)" fill="#fff"/>
  </g>
</svg>
