<svg xmlns="http://www.w3.org/2000/svg" width="16.928" height="15.605" viewBox="0 0 16.928 15.605">
  <g id="Group_34814" data-name="Group 34814" transform="translate(0 -20.003)">
    <path id="Path_20934" data-name="Path 20934" d="M3.637,141.5a.5.5,0,0,0-.5-.5H.5a.5.5,0,0,0,0,.992H3.141A.5.5,0,0,0,3.637,141.5Z" transform="translate(0 -116.999)" fill="#1eac59"/>
    <path id="Path_20935" data-name="Path 20935" d="M27.108,197.5a.5.5,0,0,0-.5-.5H24.5a.5.5,0,1,0,0,.992h2.116A.5.5,0,0,0,27.108,197.5Z" transform="translate(-23.207 -171.148)" fill="#1eac59"/>
    <path id="Path_20936" data-name="Path 20936" d="M50.116,253H48.5a.5.5,0,1,0,0,.992h1.62a.5.5,0,1,0,0-.992Z" transform="translate(-46.413 -225.296)" fill="#1eac59"/>
    <path id="Path_20937" data-name="Path 20937" d="M387.736,60.5a.5.5,0,0,0-.5-.5h-.876v.29a.5.5,0,0,1-.52.5.505.505,0,0,1-.472-.509V60H384.5a.5.5,0,0,0-.5.5v1.223h3.736Z" transform="translate(-371.304 -38.677)" fill="#1eac59"/>
    <path id="Path_20938" data-name="Path 20938" d="M197.29,20.5a.5.5,0,0,0-.5-.5h-1.653v.827a.5.5,0,0,1-.52.5.505.505,0,0,1-.472-.509V20H192.5a.5.5,0,0,0-.5.5v2.546h5.29Z" transform="translate(-185.652)" fill="#1eac59"/>
    <path id="Path_20939" data-name="Path 20939" d="M57.043,64.648H46.024l-.394-2.235a.5.5,0,0,0-.488-.41H42.5a.5.5,0,0,0,0,.992h2.229l1.418,8.034a1.554,1.554,0,0,0,.321,3.075h.4a1.554,1.554,0,1,0,2.9,0h1.864a1.554,1.554,0,1,0,2.9,0h.932a.5.5,0,1,0,0-.992H46.463a.562.562,0,0,1,0-1.124h9.257a.5.5,0,0,0,.486-.395l1.322-6.348A.5.5,0,0,0,57.043,64.648Z" transform="translate(-40.611 -40.611)" fill="#1eac59"/>
  </g>
</svg>
