<svg xmlns="http://www.w3.org/2000/svg" xmlns:xlink="http://www.w3.org/1999/xlink" width="28.706" height="32.806" viewBox="0 0 28.706 32.806">
  <defs>
    <clipPath id="clip-path">
      <rect id="Rectangle_31" data-name="Rectangle 31" width="28.706" height="32.806" fill="#e06a29"/>
    </clipPath>
  </defs>
  <g id="Group_53" data-name="Group 53" transform="matrix(1, 0, 0, 1, 0, 0)" clip-path="url(#clip-path)">
    <path id="Path_132" data-name="Path 132" d="M27.463,32.806H1.242A1.245,1.245,0,0,1,0,31.559V1.247A1.245,1.245,0,0,1,1.242,0H27.463a1.245,1.245,0,0,1,1.242,1.247V31.559a1.245,1.245,0,0,1-1.242,1.247M2.484,30.312H26.221V2.494H2.484Z" transform="translate(0 0)" fill="#e06a29"/>
    <path id="Path_133" data-name="Path 133" d="M13.116,2.494H1.242A1.247,1.247,0,0,1,1.242,0H13.116a1.247,1.247,0,0,1,0,2.494" transform="translate(3.245 7.615)" fill="#e06a29"/>
    <path id="Path_134" data-name="Path 134" d="M13.116,2.494H1.242A1.247,1.247,0,0,1,1.242,0H13.116a1.247,1.247,0,0,1,0,2.494" transform="translate(3.245 15.258)" fill="#e06a29"/>
    <path id="Path_135" data-name="Path 135" d="M13.116,2.494H1.242A1.247,1.247,0,0,1,1.242,0H13.116a1.247,1.247,0,0,1,0,2.494" transform="translate(3.245 22.901)" fill="#e06a29"/>
    <path id="Path_136" data-name="Path 136" d="M2.829,5.979a1.237,1.237,0,0,1-.88-.365L.363,4.021a1.253,1.253,0,0,1,0-1.764,1.24,1.24,0,0,1,1.758,0l.708.711L5.421.365A1.245,1.245,0,0,1,7.178,2.129L3.708,5.614a1.239,1.239,0,0,1-.879.365" transform="translate(18.136 5.646)" fill="#e06a29"/>
    <path id="Path_137" data-name="Path 137" d="M2.829,5.979a1.24,1.24,0,0,1-.88-.365L.363,4.021a1.253,1.253,0,0,1,0-1.764,1.239,1.239,0,0,1,1.758,0l.708.711L5.421.365A1.245,1.245,0,0,1,7.178,2.129L3.708,5.614a1.241,1.241,0,0,1-.879.365" transform="translate(18.136 13.424)" fill="#e06a29"/>
    <path id="Path_138" data-name="Path 138" d="M2.829,5.979a1.237,1.237,0,0,1-.88-.365L.363,4.021a1.253,1.253,0,0,1,0-1.764,1.24,1.24,0,0,1,1.758,0l.708.711L5.421.365A1.245,1.245,0,0,1,7.178,2.129L3.708,5.614a1.239,1.239,0,0,1-.879.365" transform="translate(18.136 21.201)" fill="#e06a29"/>
  </g>
</svg>
