<svg xmlns="http://www.w3.org/2000/svg" xmlns:xlink="http://www.w3.org/1999/xlink" width="36" height="34" viewBox="0 0 36 34">
  <defs>
    <clipPath id="clip-path">
      <rect id="Rectangle_149045" data-name="Rectangle 149045" width="36" height="34" fill="#e06a29"/>
    </clipPath>
  </defs>
  <g id="Group_35058" data-name="Group 35058" transform="translate(0 0)">
    <g id="Group_35057" data-name="Group 35057" transform="translate(0 0)" clip-path="url(#clip-path)">
      <path id="Path_23805" data-name="Path 23805" d="M29.778,34.882A3.911,3.911,0,0,1,28,34.406l-7.8-4.044-4.753,2.467a1.349,1.349,0,0,1-1.809-.555A1.312,1.312,0,0,1,14.2,30.49L19.575,27.7a1.364,1.364,0,0,1,1.248,0l8.419,4.367a1.786,1.786,0,0,0,.384.152,1.789,1.789,0,0,0-.029-.409l-1.608-9.244a1.3,1.3,0,0,1,.385-1.169l6.808-6.543a1.854,1.854,0,0,0,.269-.316,1.882,1.882,0,0,0-.406-.1l-9.408-1.349a1.339,1.339,0,0,1-1.009-.724L21.921,6.957a1.312,1.312,0,0,1,.608-1.769,1.35,1.35,0,0,1,1.794.6l2.4,4.789,8.712,1.25A3.029,3.029,0,0,1,38.083,13.7a2.969,2.969,0,0,1-1.031,3.051l-6.3,6.058,1.488,8.558a2.966,2.966,0,0,1-.982,3.062,2.506,2.506,0,0,1-1.478.457" transform="translate(-2.199 -0.883)" fill="#e06a29"/>
      <path id="Path_23806" data-name="Path 23806" d="M8.423,34a2.5,2.5,0,0,1-1.477-.456,2.966,2.966,0,0,1-.983-3.063L7.45,21.923l-6.3-6.058A2.968,2.968,0,0,1,.115,12.814a3.028,3.028,0,0,1,2.652-1.871l8.712-1.25,3.9-7.787A3.032,3.032,0,0,1,18,0h0a3.032,3.032,0,0,1,2.624,1.907,1.313,1.313,0,0,1-.608,1.77,1.353,1.353,0,0,1-1.8-.6A1.8,1.8,0,0,0,18,2.727a1.781,1.781,0,0,0-.22.349l-4.208,8.409a1.336,1.336,0,0,1-1.008.724L3.154,13.557a1.844,1.844,0,0,0-.407.1,1.828,1.828,0,0,0,.27.316l6.807,6.543a1.308,1.308,0,0,1,.386,1.169L8.6,30.927a1.705,1.705,0,0,0-.029.409,1.8,1.8,0,0,0,.387-.153,1.349,1.349,0,0,1,1.808.557,1.312,1.312,0,0,1-.565,1.783A3.911,3.911,0,0,1,8.423,34" transform="translate(0 0)" fill="#e06a29"/>
    </g>
  </g>
</svg>
