<svg xmlns="http://www.w3.org/2000/svg" xmlns:xlink="http://www.w3.org/1999/xlink" width="40.172" height="33.477" viewBox="0 0 40.172 33.477">
  <defs>
    <clipPath id="clip-path">
      <rect id="Rectangle_27" data-name="Rectangle 27" width="40.172" height="33.477" fill="#e06a29"/>
    </clipPath>
  </defs>
  <g id="Group_45" data-name="Group 45" transform="matrix(1, 0, 0, 1, 0, 0)" clip-path="url(#clip-path)">
    <path id="Path_114" data-name="Path 114" d="M38.849,25.681a1.318,1.318,0,0,1-1.323-1.312v-5.43a9.186,9.186,0,0,0-1.961-5.149c-2.726-3.473-7.184-9.114-7.662-9.609-1.217-1.207-1.7-1.557-4.582-1.557H5.352a2.447,2.447,0,0,0-2.695,2.46c0,1.581-.011,19.286-.011,19.286H0S.011,6.665.011,5.083A5.045,5.045,0,0,1,5.352,0H23.32c3.514,0,4.7.581,6.458,2.33.624.62,6.164,7.669,7.847,9.815a11.718,11.718,0,0,1,2.546,6.794v5.43a1.318,1.318,0,0,1-1.323,1.312" transform="translate(0 0)" fill="#e06a29"/>
    <path id="Path_115" data-name="Path 115" d="M5.215,2.624H1.323A1.312,1.312,0,1,1,1.323,0H5.215a1.312,1.312,0,1,1,0,2.624" transform="translate(33.634 26.531)" fill="#e06a29"/>
    <path id="Path_116" data-name="Path 116" d="M5.68,11.266A5.663,5.663,0,0,1,0,5.633a5.681,5.681,0,0,1,11.362,0A5.663,5.663,0,0,1,5.68,11.266m0-8.642A3.009,3.009,0,1,0,8.716,5.633,3.026,3.026,0,0,0,5.68,2.624" transform="translate(24.963 22.211)" fill="#e06a29"/>
    <path id="Path_117" data-name="Path 117" d="M5.682,11.266A5.664,5.664,0,0,1,0,5.633a5.681,5.681,0,0,1,11.362,0,5.663,5.663,0,0,1-5.68,5.633m0-8.642A3.009,3.009,0,1,0,8.716,5.633,3.026,3.026,0,0,0,5.682,2.624" transform="translate(3.296 22.211)" fill="#e06a29"/>
    <path id="Path_118" data-name="Path 118" d="M14.275,2.624H1.323A1.312,1.312,0,1,1,1.323,0H14.275a1.312,1.312,0,1,1,0,2.624" transform="translate(12.011 26.531)" fill="#e06a29"/>
    <path id="Path_119" data-name="Path 119" d="M4.619,2.624h-3.3A1.312,1.312,0,1,1,1.323,0h3.3a1.312,1.312,0,1,1,0,2.624" transform="translate(0 26.531)" fill="#e06a29"/>
    <path id="Path_120" data-name="Path 120" d="M12.727,14.583H1.323A1.318,1.318,0,0,1,0,13.271V1.312a1.323,1.323,0,0,1,2.646,0V11.96h10.08a1.312,1.312,0,1,1,0,2.624" transform="translate(21.92 3.48)" fill="#e06a29"/>
  </g>
</svg>
