<svg xmlns="http://www.w3.org/2000/svg" xmlns:xlink="http://www.w3.org/1999/xlink" width="73" height="18.52" viewBox="0 0 73 18.52">
  <defs>
    <clipPath id="clip-path">
      <rect id="SVGID" width="73" height="18.52" fill="none"/>
    </clipPath>
  </defs>
  <g id="Group_34507" data-name="Group 34507" transform="translate(0 0)">
    <g id="Group_34499" data-name="Group 34499" transform="translate(0 0)" clip-path="url(#clip-path)">
      <path id="Path_20736" data-name="Path 20736" d="M32.566.863l1.785,3.616a1.544,1.544,0,0,0,1.166.847l3.99.58a1.549,1.549,0,0,1,.858,2.642l-2.888,2.814a1.547,1.547,0,0,0-.445,1.371l.681,3.975a1.548,1.548,0,0,1-2.246,1.631L31.9,16.463a1.548,1.548,0,0,0-1.441,0l-3.57,1.876a1.548,1.548,0,0,1-2.246-1.631l.682-3.975a1.551,1.551,0,0,0-.445-1.371L21.99,8.548a1.549,1.549,0,0,1,.858-2.642l3.99-.58A1.546,1.546,0,0,0,28,4.479L29.789.863a1.548,1.548,0,0,1,2.777,0" transform="translate(5.322 -0.001)" fill="#e06a29"/>
      <path id="Path_20737" data-name="Path 20737" d="M54.087.863l1.785,3.616a1.544,1.544,0,0,0,1.165.847l3.991.58a1.549,1.549,0,0,1,.858,2.642L59,11.362a1.547,1.547,0,0,0-.445,1.371l.681,3.975a1.548,1.548,0,0,1-2.246,1.631l-3.57-1.876a1.548,1.548,0,0,0-1.441,0l-3.57,1.876a1.548,1.548,0,0,1-2.246-1.631l.682-3.975a1.551,1.551,0,0,0-.445-1.371L43.511,8.548a1.549,1.549,0,0,1,.858-2.642l3.99-.58a1.546,1.546,0,0,0,1.166-.847L51.31.863a1.548,1.548,0,0,1,2.777,0" transform="translate(10.645 -0.001)" fill="#e06a29"/>
      <path id="Path_20738" data-name="Path 20738" d="M11.046.863,12.83,4.479A1.544,1.544,0,0,0,14,5.326l3.99.58a1.549,1.549,0,0,1,.858,2.642l-2.888,2.814a1.551,1.551,0,0,0-.445,1.371l.682,3.975a1.549,1.549,0,0,1-2.248,1.631l-3.57-1.876a1.546,1.546,0,0,0-1.439,0L5.368,18.339a1.549,1.549,0,0,1-2.248-1.631L3.8,12.733a1.551,1.551,0,0,0-.445-1.371L.47,8.548a1.549,1.549,0,0,1,.858-2.642l3.99-.58a1.548,1.548,0,0,0,1.166-.847L8.268.863a1.549,1.549,0,0,1,2.778,0" transform="translate(0 -0.001)" fill="#e06a29"/>
    </g>
  </g>
</svg>
