<svg xmlns="http://www.w3.org/2000/svg" xmlns:xlink="http://www.w3.org/1999/xlink" width="119" height="57" viewBox="0 0 119 57">
  <defs>
    <clipPath id="clip-path">
      <rect id="SVGID" width="119" height="57" transform="translate(0.182 -0.394)" fill="none"/>
    </clipPath>
  </defs>
  <g id="Group_34613" data-name="Group 34613" transform="translate(-0.182 0.394)">
    <g id="Group_34503" data-name="Group 34503" clip-path="url(#clip-path)">
      <path id="Path_20747" data-name="Path 20747" d="M91.183,0h-63A28.271,28.271,0,1,0,52.215,43.039H67.15A28.212,28.212,0,1,0,91.183,0M40.129,28.023a4.678,4.678,0,0,1-4.643,4.683H31.107v4.417a4.678,4.678,0,0,1-4.643,4.683h-.746a4.678,4.678,0,0,1-4.643-4.683V32.706H16.7a4.679,4.679,0,0,1-4.643-4.683v-.752A4.678,4.678,0,0,1,16.7,22.588h4.379V18.171a4.678,4.678,0,0,1,4.643-4.683h.746a4.678,4.678,0,0,1,4.643,4.683v4.417h4.379a4.678,4.678,0,0,1,4.643,4.683Zm41.744,4.5a4.879,4.879,0,1,1,4.837-4.878,4.858,4.858,0,0,1-4.837,4.878m9.475,9.695a4.879,4.879,0,1,1,4.837-4.878,4.855,4.855,0,0,1-4.837,4.878m0-19.395a4.878,4.878,0,1,1,4.837-4.878,4.855,4.855,0,0,1-4.837,4.878m9.754,9.7a4.879,4.879,0,1,1,4.837-4.878,4.858,4.858,0,0,1-4.837,4.878" transform="translate(0)" fill="#1eac59"/>
    </g>
  </g>
</svg>
