<svg xmlns="http://www.w3.org/2000/svg" xmlns:xlink="http://www.w3.org/1999/xlink" width="31.035" height="35.904" viewBox="0 0 31.035 35.904">
  <defs>
    <clipPath id="clip-path">
      <rect id="Rectangle_29" data-name="Rectangle 29" width="31.035" height="35.904" fill="#e06a29"/>
    </clipPath>
  </defs>
  <g id="Group_49" data-name="Group 49" transform="matrix(1, 0, 0, 1, 0, 0)" clip-path="url(#clip-path)">
    <path id="Path_123" data-name="Path 123" d="M1.308,0A1.316,1.316,0,0,0,0,1.324v23.31a1.316,1.316,0,0,0,1.308,1.324,1.316,1.316,0,0,0,1.308-1.324V1.324A1.316,1.316,0,0,0,1.308,0" transform="translate(0 9.946)" fill="#e06a29"/>
    <path id="Path_124" data-name="Path 124" d="M27.252,19.792a3.806,3.806,0,0,0-1.072-2.662,4.115,4.115,0,0,0,1.177-2.9A4.277,4.277,0,0,0,22.758,10H15.253c.884-2.139,1.97-5.521,1.119-7.72A3.36,3.36,0,0,0,14.327.264C11.153-.874,8.967,1.877,6.858,4.541,5.206,6.624,3.336,8.985.787,10.107a1.331,1.331,0,0,0-.678,1.742,1.3,1.3,0,0,0,1.722.686C4.973,11.151,7.149,8.4,8.9,6.2c2.174-2.743,3.263-3.9,4.554-3.437a.734.734,0,0,1,.483.481C14.461,4.6,13.43,7.776,12.391,10h-1.4a1.324,1.324,0,0,0,0,2.647H22.758c1.463,0,1.982.856,1.982,1.589a1.474,1.474,0,0,1-.43,1.054,2.149,2.149,0,0,1-1.552.528,1.324,1.324,0,0,0,0,2.647,2.192,2.192,0,0,1,1.514.463,1.164,1.164,0,0,1,.363.868c0,.738-.64,1.834-2.4,1.834a1.324,1.324,0,0,0,0,2.647,2.292,2.292,0,0,1,1.568.473,1.146,1.146,0,0,1,.369.863c0,.736-.655,1.831-2.46,1.831a1.324,1.324,0,0,0,0,2.647,1.95,1.95,0,0,1,1.385.44,1.208,1.208,0,0,1,.347.882,2,2,0,0,1-2.257,1.847H1.309a1.324,1.324,0,0,0,0,2.647H21.186a4.587,4.587,0,0,0,4.874-4.494,3.867,3.867,0,0,0-.883-2.47,4.35,4.35,0,0,0,1.611-3.329,3.785,3.785,0,0,0-1.016-2.586,4.372,4.372,0,0,0,1.48-3.232" transform="translate(3.678 0)" fill="#e06a29"/>
  </g>
</svg>
