<svg xmlns="http://www.w3.org/2000/svg" xmlns:xlink="http://www.w3.org/1999/xlink" width="98" height="25" viewBox="0 0 98 25">
  <defs>
    <clipPath id="clip-path">
      <rect id="SVGID" width="98" height="25" transform="translate(-0.121 -0.015)" fill="none"/>
    </clipPath>
  </defs>
  <g id="Group_34612" data-name="Group 34612" transform="translate(0.12 0.015)">
    <g id="Group_34499" data-name="Group 34499" transform="translate(0.001 0)" clip-path="url(#clip-path)">
      <path id="Path_20736" data-name="Path 20736" d="M36.246,1.183l2.38,4.957A2.063,2.063,0,0,0,40.18,7.3l5.319.8a2.139,2.139,0,0,1,1.144,3.621l-3.85,3.857a2.158,2.158,0,0,0-.594,1.879l.908,5.449a2.076,2.076,0,0,1-2.995,2.236l-4.759-2.572a2.014,2.014,0,0,0-1.921,0L28.675,25.14A2.076,2.076,0,0,1,25.68,22.9l.91-5.449A2.163,2.163,0,0,0,26,15.575l-3.85-3.857A2.139,2.139,0,0,1,23.29,8.1l5.319-.8A2.066,2.066,0,0,0,30.165,6.14l2.38-4.957a2.039,2.039,0,0,1,3.7,0" transform="translate(14.776 0.446)" fill="#e06a29"/>
      <path id="Path_20737" data-name="Path 20737" d="M57.767,1.183l2.38,4.957A2.063,2.063,0,0,0,61.7,7.3l5.321.8a2.139,2.139,0,0,1,1.144,3.621l-3.85,3.857a2.158,2.158,0,0,0-.594,1.879l.908,5.449a2.076,2.076,0,0,1-2.995,2.236l-4.759-2.572a2.014,2.014,0,0,0-1.921,0L50.2,25.14A2.076,2.076,0,0,1,47.2,22.9l.91-5.449a2.163,2.163,0,0,0-.594-1.879l-3.85-3.857A2.139,2.139,0,0,1,44.811,8.1l5.319-.8A2.066,2.066,0,0,0,51.686,6.14l2.38-4.957a2.039,2.039,0,0,1,3.7,0" transform="translate(29.041 0.446)" fill="#e06a29"/>
      <path id="Path_20738" data-name="Path 20738" d="M14.726,1.183,17.1,6.14A2.063,2.063,0,0,0,18.658,7.3l5.319.8a2.139,2.139,0,0,1,1.144,3.621l-3.85,3.857a2.163,2.163,0,0,0-.594,1.879l.91,5.449a2.077,2.077,0,0,1-3,2.236l-4.759-2.572a2.011,2.011,0,0,0-1.919,0L7.156,25.14a2.077,2.077,0,0,1-3-2.236l.91-5.449a2.163,2.163,0,0,0-.594-1.879L.626,11.718A2.139,2.139,0,0,1,1.77,8.1L7.09,7.3A2.069,2.069,0,0,0,8.645,6.14l2.378-4.957a2.04,2.04,0,0,1,3.7,0" transform="translate(0.511 0.446)" fill="#e06a29"/>
    </g>
  </g>
</svg>
