<svg xmlns="http://www.w3.org/2000/svg" xmlns:xlink="http://www.w3.org/1999/xlink" width="150" height="137" viewBox="0 0 150 137">
  <defs>
    <clipPath id="clip-path">
      <rect id="SVGID" width="150" height="137" transform="translate(-0.2 0.116)" fill="none"/>
    </clipPath>
  </defs>
  <g id="Group_34505" data-name="Group 34505" transform="translate(0.2 -0.116)" clip-path="url(#clip-path)">
    <path id="Path_20748" data-name="Path 20748" d="M101.65,32.225,94.86,20.353c-.868-1.518-3.121-1.739-4.632-.868l-6.8,3.92-.031.018a45.969,45.969,0,0,0-10.466-8.206l2.023-7.643a3.169,3.169,0,0,0-2.22-3.887L59.575.112a3.145,3.145,0,0,0-3.864,2.228L53.676,9.932l.015.021a35.792,35.792,0,0,0-13.083,1.614L36.7,4.74A3.374,3.374,0,0,0,32.226,3.5L20.4,10.317c-1.511.872-1.361,2.59-.494,4.107l3.9,6.827.018.032A37.437,37.437,0,0,0,15.4,31.942L7.535,30.06a3.154,3.154,0,0,0-3.868,2.234L.109,45.515a3.184,3.184,0,0,0,2.228,3.9l7.579,2.074.057.047A37.006,37.006,0,0,0,11.65,64.792l-6.8,3.92c-1.511.871-1.732,2.435-.864,3.953l6.79,11.873A2.473,2.473,0,0,0,14.5,85.577l6.8-3.92.032-.018a36.572,36.572,0,0,0,10.548,8.337l-1.941,7.773a3.17,3.17,0,0,0,2.232,3.88l13.184,3.562a3.212,3.212,0,0,0,3.911-2.255l2.13-7.647.175-.13a38.211,38.211,0,0,0,13.463-1.833l3.9,6.826c.868,1.518,2.054,2.283,3.566,1.412l11.824-6.818a3.207,3.207,0,0,0,1.406-4.279l-3.9-6.827-.018-.031a35.125,35.125,0,0,0,8.047-10.442l7.485,2.1a3.154,3.154,0,0,0,3.867-2.238L104.759,59.8a3.206,3.206,0,0,0-2.237-3.912l-7.6-2.108-.095-.114a37.844,37.844,0,0,0-1.754-13.394l6.8-3.92c1.511-.871,2.645-2.606,1.777-4.124M37,40.367A19.659,19.659,0,0,1,51.47,32.872q.475-.023.949-.022c.158,0,.316,0,.474.006q.474.012.946.046t.94.092c.156.019.312.04.468.063q.934.137,1.85.362.229.056.456.118.455.123.9.269.224.072.447.15.444.155.882.333.219.089.436.182c.2.088.405.182.606.276q.34.161.674.334.42.219.83.459.547.32,1.073.677c.175.119.35.239.521.364q.388.281.762.58.562.451,1.093.945.353.33.693.679a19.826,19.826,0,0,1,5.54,12.344q.051.716.051,1.43,0,.476-.024.951t-.068.947A19.836,19.836,0,0,1,71.6,56.8q-.1.462-.224.919-.184.685-.417,1.356-.155.447-.332.886-.088.219-.182.437-.187.435-.395.862-.312.639-.67,1.257-.238.411-.5.812a19.676,19.676,0,0,1-14.078,8.817q-.475.058-.95.093a19.564,19.564,0,0,1-2.844,0q-.471-.034-.94-.092-.234-.029-.468-.063-.7-.1-1.391-.255a19.709,19.709,0,0,1-15.4-20.259q.029-.549.087-1.094a19.921,19.921,0,0,1,1.321-5.292q.088-.219.182-.437.187-.435.395-.861t.437-.843q.457-.834,1-1.624c.117-.171.238-.341.361-.509s.268-.36.406-.537" transform="translate(-0.537 -0.176)" fill="#1eac59"/>
    <path id="Path_20749" data-name="Path 20749" d="M245.128,164.923l-6.753-5.271a2.171,2.171,0,0,0-2.894.6l-3.019,3.9-.013.018a28.729,28.729,0,0,0-8.019-2.265l-.636-4.92a1.98,1.98,0,0,0-2.209-1.726l-8.485,1.066a1.98,1.98,0,0,0-1.716,2.215l.616,4.893.013.008a22.522,22.522,0,0,0-7.212,4.06l-3.883-3.031a2.115,2.115,0,0,0-2.893.349l-5.25,6.78c-.67.867-.177,1.829.686,2.5l3.883,3.031.018.014a23.587,23.587,0,0,0-2.369,8.2l-5.012.786a1.986,1.986,0,0,0-1.717,2.22l1.066,8.524a1.988,1.988,0,0,0,2.216,1.729l4.891-.605.044.014a23.161,23.161,0,0,0,4.113,7.3l-3.018,3.9a1.679,1.679,0,0,0,.434,2.5l6.753,5.271a1.55,1.55,0,0,0,2.405-.285l3.019-3.9.014-.018a22.867,22.867,0,0,0,8.1,2.322l.714,4.975a1.981,1.981,0,0,0,2.214,1.719l8.5-1.079a2.023,2.023,0,0,0,1.737-2.243l-.574-4.947.071-.118a24.04,24.04,0,0,0,7.381-4.278l3.883,3.031c.863.674,1.733.835,2.4-.031l5.25-6.781a2.014,2.014,0,0,0-.2-2.819l-3.883-3.031-.018-.014a22.126,22.126,0,0,0,2.2-7.982l4.841-.569a1.986,1.986,0,0,0,1.715-2.223l-1.071-8.527a2,2,0,0,0-2.225-1.737l-4.91.591-.082-.044a23.673,23.673,0,0,0-4.189-7.356l3.018-3.9c.671-.866.919-2.144.056-2.818m-35.6,20.16a12.38,12.38,0,0,1,6.626-7.8c.181-.084.363-.165.546-.24.092-.037.184-.074.277-.109q.277-.106.56-.2t.568-.171c.095-.026.19-.051.286-.075.383-.1.77-.173,1.159-.232q.146-.021.293-.04c.2-.024.392-.045.588-.06q.147-.011.3-.019c.2-.011.394-.016.591-.017.1,0,.2,0,.3,0,.14,0,.278.008.417.015.157.008.314.019.471.033q.3.027.59.068.393.056.784.137c.129.027.259.055.388.087q.291.07.579.155.433.127.858.288.284.107.564.228a12.382,12.382,0,0,1,6.138,5.843q.2.4.368.818.113.277.211.558c.066.187.127.376.185.566a12.536,12.536,0,0,1,.34,1.445q.051.293.087.587.056.442.079.887.015.3.017.593c0,.1,0,.2,0,.3q-.005.3-.025.595c-.02.3-.05.594-.092.89q-.042.3-.1.59a12.393,12.393,0,0,1-6.084,8.479c-.175.1-.351.192-.53.28a12.273,12.273,0,0,1-1.651.678c-.188.061-.377.119-.568.171-.1.027-.191.051-.286.075q-.431.108-.867.185a12.319,12.319,0,0,1-13.737-8.084q-.114-.325-.209-.656a12.471,12.471,0,0,1-.486-3.387c0-.1,0-.2,0-.3,0-.2.012-.4.025-.595s.031-.4.054-.593q.069-.593.194-1.181c.027-.127.057-.255.089-.381s.07-.273.109-.409" transform="translate(-102.831 -84.244)" fill="#1eac59"/>
  </g>
</svg>
