<svg xmlns="http://www.w3.org/2000/svg" xmlns:xlink="http://www.w3.org/1999/xlink" width="113" height="119" viewBox="0 0 113 119">
  <defs>
    <clipPath id="clip-path">
      <rect id="SVGID" width="113" height="119" transform="translate(0.04 0.306)" fill="none"/>
    </clipPath>
  </defs>
  <g id="Group_34604" data-name="Group 34604" transform="translate(-0.041 -0.306)">
    <g id="Group_34501" data-name="Group 34501" transform="translate(0.001 0)" clip-path="url(#clip-path)">
      <path id="Path_20739" data-name="Path 20739" d="M55.563,118.779H8.284A8.3,8.3,0,0,1,0,110.46V8.319A8.3,8.3,0,0,1,8.284,0H55.563a8.3,8.3,0,0,1,8.284,8.319V110.46a8.3,8.3,0,0,1-8.284,8.319" transform="translate(-0.22 0.69)" fill="#1eac59"/>
      <rect id="Rectangle_148831" data-name="Rectangle 148831" width="55.361" height="82.991" transform="translate(3.922 18.369)" fill="#fff"/>
      <path id="Path_20740" data-name="Path 20740" d="M76.334,281.135H66.573a2.354,2.354,0,0,1-2.349-2.359v-.457a2.354,2.354,0,0,1,2.349-2.359h9.762a2.354,2.354,0,0,1,2.349,2.359v.457a2.354,2.354,0,0,1-2.349,2.359" transform="translate(-39.643 -168.248)" fill="#fff"/>
      <path id="Path_20741" data-name="Path 20741" d="M76.334,21.034H66.573a2.354,2.354,0,0,1-2.349-2.359v-.457a2.354,2.354,0,0,1,2.349-2.359h9.762a2.354,2.354,0,0,1,2.349,2.359v.457a2.354,2.354,0,0,1-2.349,2.359" transform="translate(-39.643 -9.019)" fill="#fff"/>
      <path id="Path_20742" data-name="Path 20742" d="M127.172,65.74c-21.342,0-39.884,10.424-39.437,22.835.143,3.973,6.1,11.058,6.1,11.058l-.286,19.149,21.2-8.879s6.567.809,10.136.809c21.341,0,40.93-10.067,40.93-22.486s-17.3-22.486-38.642-22.486" transform="translate(-54.071 -39.554)" fill="#fff"/>
      <path id="Path_20743" data-name="Path 20743" d="M90.525,118.7l.306-20.493c-1.307-1.6-5.955-7.554-6.094-11.429-.147-4.077,1.6-8.132,5.051-11.725,7.184-7.481,21.136-12.315,35.543-12.315,10.523,0,20.433,2.395,27.905,6.743,7.671,4.463,11.9,10.468,11.9,16.906,0,12.819-19.274,23.649-42.089,23.649-3.2,0-8.616-.619-9.971-.781Zm34.806-53.635c-13.809,0-27.107,4.555-33.876,11.6-3,3.128-4.527,6.595-4.4,10.026.105,2.926,4.243,8.463,5.829,10.35l.28.333-.266,17.809,19.85-8.314.3.038c.065.008,6.538.8,9.995.8,21.187,0,39.772-9.963,39.772-21.322,0-11.757-16.815-21.322-37.484-21.322" transform="translate(-52.229 -37.718)" fill="#1eac59"/>
      <path id="Path_20744" data-name="Path 20744" d="M132.469,115.978a9.235,9.235,0,0,0,4.029,1.006c1.669,0,2.551-.7,2.551-1.749,0-1.006-.763-1.58-2.694-2.275-2.67-.934-4.411-2.418-4.411-4.765,0-2.753,2.289-4.861,6.079-4.861a9.813,9.813,0,0,1,4.1.815l-.811,2.944a7.645,7.645,0,0,0-3.362-.764c-1.574,0-2.337.717-2.337,1.556,0,1.029.907,1.483,2.981,2.273,2.836,1.055,4.172,2.539,4.172,4.814,0,2.706-2.074,5-6.485,5a10.473,10.473,0,0,1-4.554-.983Z" transform="translate(-81.081 -62.569)" fill="#1eac59"/>
      <path id="Path_20745" data-name="Path 20745" d="M179.715,113.973c-.072-1.938-.144-4.285-.144-6.631H179.5c-.5,2.059-1.168,4.358-1.789,6.249l-1.955,6.3h-2.837l-1.716-6.251c-.524-1.891-1.073-4.19-1.454-6.3H169.7c-.1,2.178-.167,4.668-.286,6.68l-.286,6.13h-3.362l1.025-16.14h4.84l1.573,5.389c.5,1.868,1,3.878,1.359,5.769h.072c.453-1.866,1-4,1.526-5.794l1.716-5.364h4.745l.882,16.14h-3.553Z" transform="translate(-101.974 -62.984)" fill="#1eac59"/>
      <path id="Path_20746" data-name="Path 20746" d="M218.089,115.978a9.235,9.235,0,0,0,4.029,1.006c1.669,0,2.551-.7,2.551-1.749,0-1.006-.763-1.58-2.694-2.275-2.67-.934-4.411-2.418-4.411-4.765,0-2.753,2.289-4.861,6.079-4.861a9.812,9.812,0,0,1,4.1.815l-.81,2.944a7.645,7.645,0,0,0-3.362-.764c-1.574,0-2.337.717-2.337,1.556,0,1.029.907,1.483,2.981,2.273,2.836,1.055,4.172,2.539,4.172,4.814,0,2.706-2.074,5-6.485,5a10.473,10.473,0,0,1-4.554-.983Z" transform="translate(-133.637 -62.569)" fill="#1eac59"/>
    </g>
  </g>
</svg>
