<svg xmlns="http://www.w3.org/2000/svg" xmlns:xlink="http://www.w3.org/1999/xlink" width="81" height="112" viewBox="0 0 81 112">
  <defs>
    <clipPath id="clip-path">
      <rect id="Rectangle_52" data-name="Rectangle 52" width="81" height="112" transform="translate(-0.13 -0.246)" fill="none"/>
    </clipPath>
  </defs>
  <g id="Vector_Smart_Object" data-name="Vector Smart Object" transform="translate(0.13 0.246)">
    <g id="Group_94" data-name="Group 94" transform="translate(0 0)">
      <g id="Group_93" data-name="Group 93" clip-path="url(#clip-path)">
        <path id="Path_2449" data-name="Path 2449" d="M81.452,32.015a8.615,8.615,0,0,0-4.375-7.523A3.714,3.714,0,0,0,70.093,22.7a8.428,8.428,0,0,0,.247-2.052,8.565,8.565,0,0,0-8.522-8.6,8.679,8.679,0,0,0-1.523.137A8.617,8.617,0,0,0,52.546,0a8.509,8.509,0,0,0-7.794,5.142,3.752,3.752,0,0,0-3.827,6.166,7.969,7.969,0,0,0-2.187.612,8.512,8.512,0,0,0-16.553,2.885,8.819,8.819,0,0,0,.063,1.014,8.3,8.3,0,0,0-2.522-.877,3.725,3.725,0,1,0-7.236-1.21,3.763,3.763,0,0,0,.98,2.542,8.617,8.617,0,0,0-3.754,7.131c0,.113,0,.22.01.333a7.828,7.828,0,0,0-1.407-.122,8.406,8.406,0,0,0-2.163,16.5l7.872,72.66H70.016l8-73.8h-.087a8.623,8.623,0,0,0,3.526-6.969M52.89,108.882H31.152L28.043,43.3H55.994Zm16.786-84.9a.435.435,0,0,0-.01.083.068.068,0,0,0-.029.01c.015-.029.024-.064.039-.093" transform="translate(-0.486 -0.152)" fill="#1eac59"/>
      </g>
    </g>
  </g>
</svg>
